<?xml version="1.0" encoding="UTF-8"?> <svg xmlns="http://www.w3.org/2000/svg" id="Layer_1" data-name="Layer 1" width="135" height="45" viewBox="0 0 135 45"> <title>dr-laurie-signature</title> <path d="M17.97355,36.68859a7.51492,7.51492,0,0,1-2.47274,1.29911,4.71935,4.71935,0,0,1-2.86915-.09684,10.63965,10.63965,0,0,1-4.19227-3.446L6.78054,32.41747a8.7809,8.7809,0,0,0-1.79536-1.71866,1.902,1.902,0,0,0-1-.33521,1.50631,1.50631,0,0,0-.92282.35192,5.09506,5.09506,0,0,0-1.12009,2.06485,20.1317,20.1317,0,0,0-.86367,4.98768,14.60753,14.60753,0,0,0,.41027,4.94355,2.86672,2.86672,0,0,0,.47762.94122.55213.55213,0,0,0,.55891.2411,3.51565,3.51565,0,0,0,.47143-.15439c.17572-.075.35144-.15611.5225-.25024a6.47415,6.47415,0,0,0,.98538-.67785,16.04969,16.04969,0,0,0,3.18581-3.87117,60.22063,60.22063,0,0,0,4.48891-9.29954c1.28054-3.21732,2.42845-6.4928,3.53669-9.78384,1.11523-3.28946,2.15692-6.60623,3.3-9.89948.57092-1.647,1.15553-3.2918,1.80871-4.92107.32858-.8142.67438-1.62445,1.07273-2.42283a12.26685,12.26685,0,0,1,.6676-1.18255A3.80431,3.80431,0,0,1,23.57055.32366L23.57144.323l.422-.323.22673.50685a4.752,4.752,0,0,1,.30363,2.218,12.98,12.98,0,0,1-.29433,2.084A21.6547,21.6547,0,0,1,22.88014,8.745a17.1729,17.1729,0,0,1-5.02728,6.69856,11.753,11.753,0,0,1-3.86522,1.93908,8.67723,8.67723,0,0,1-4.382.13739,6.68372,6.68372,0,0,1-3.71278-2.32342,6.0073,6.0073,0,0,1-1.274-4.06606.36788.36788,0,0,1,.73122-.01591l.00071.00682a6.45677,6.45677,0,0,0,1.283,3.49712,5.69626,5.69626,0,0,0,3.20083,1.92011,9.10906,9.10906,0,0,0,7.33924-1.9567,16.45325,16.45325,0,0,0,4.75336-6.2618,20.67145,20.67145,0,0,0,1.32251-3.73952A12.42459,12.42459,0,0,0,23.575,2.65252a3.98607,3.98607,0,0,0-.1661-1.7769l.6485.18381-.0005.00039A5.74494,5.74494,0,0,0,22.72338,3.005c-.3735.76479-.70554,1.5603-1.02123,2.36305-.62851,1.60812-1.19554,3.248-1.74942,4.89275l-3.25681,9.91049c-1.10108,3.30283-2.24391,6.59693-3.52579,9.84658a61.18712,61.18712,0,0,1-4.54578,9.48246,17.06336,17.06336,0,0,1-3.407,4.14664,6.08351,6.08351,0,0,1-2.52971,1.3292,1.69409,1.69409,0,0,1-1.572-.64032,3.88973,3.88973,0,0,1-.662-1.30937A15.51568,15.51568,0,0,1,.05906,37.698a21.01147,21.01147,0,0,1,.99437-5.21716A5.79347,5.79347,0,0,1,2.4759,30.0474a2.42487,2.42487,0,0,1,1.5061-.559,2.79084,2.79084,0,0,1,1.48367.47633,9.52775,9.52775,0,0,1,1.99544,1.8999l1.65907,2.03623A9.888,9.888,0,0,0,12.927,37.09119a3.76164,3.76164,0,0,0,2.3302.06889A6.63819,6.63819,0,0,0,17.42083,35.999l.00821-.00624a.45273.45273,0,0,1,.62707.0787.4332.4332,0,0,1-.0802.61535Z" fill="#fdba4d"></path> <path d="M23.99035,29.55977a54.31589,54.31589,0,0,1-2.27273,5.73316,16.55453,16.55453,0,0,1-1.56427,2.78025,3.09022,3.09022,0,0,1-.68649.69031,1.23743,1.23743,0,0,1-.79034.23282,1.04455,1.04455,0,0,1-.51537-.19349,1.65882,1.65882,0,0,1-.24077-.21907,3.3616,3.3616,0,0,1-.72581-1.73856,11.47875,11.47875,0,0,1,.05012-3.23074,19.75388,19.75388,0,0,1,.68766-3.07886,15.17761,15.17761,0,0,1,1.23073-2.94736,7.15109,7.15109,0,0,1,.9851-1.37407,2.82121,2.82121,0,0,1,1.74523-.96026,2.01495,2.01495,0,0,1,.5883.03981,1.98761,1.98761,0,0,1,.27713.07982,1.21851,1.21851,0,0,1,.37332.21782,1.62649,1.62649,0,0,1,.48476,1.13311,7.338,7.338,0,0,1-.12586,1.67063c-.176,1.03795-.41449,2.0273-.62384,3.01732a26.68535,26.68535,0,0,0-.49808,2.944,4.7655,4.7655,0,0,0,.289,2.6447,1.19455,1.19455,0,0,0,.35389.3785c.1106.09611.42942.16863.249.13751a1.9705,1.9705,0,0,0,.46016-.31033,6.9079,6.9079,0,0,0,.51962-.4889,21.86132,21.86132,0,0,0,1.898-2.30932,29.29085,29.29085,0,0,0,3.056-5.16781l.00154-.00284.02906-.054a.675.675,0,0,1,.90362-.27348.65266.65266,0,0,1,.29933.84487,17.96067,17.96067,0,0,0-1.35422,4.05393,4.34442,4.34442,0,0,0-.01666,1.93742.75464.75464,0,0,0,.43963.5131,1.43324,1.43324,0,0,0,.84148.00768,6.50069,6.50069,0,0,0,3.17774-2.539A12.9783,12.9783,0,0,0,35.436,29.91806l.00128-.00393a.44854.44854,0,0,1,.56181-.28371.43794.43794,0,0,1,.30409.4914l-.00271.01522a25.89932,25.89932,0,0,0-.54861,5.246c.02515.81883.2418,1.72355.68036,1.93858a.8672.8672,0,0,0,.38141.101,1.62119,1.62119,0,0,0,.24375-.00344.57943.57943,0,0,0,.16311-.04113,3.28914,3.28914,0,0,0,.90561-.63461,24.39711,24.39711,0,0,0,3.24224-4.13155c.97857-1.48859,1.9067-3.03457,2.76746-4.58478L44.14,28.02a.90442.90442,0,0,1,1.2237-.31744.87481.87481,0,0,1,.39076,1.06,6.4955,6.4955,0,0,0-.36544,3.87483,2.05422,2.05422,0,0,0,1.02474,1.24768,1.36958,1.36958,0,0,0,.19738.09466l.10362.04257c.03907.018.081.03079.02832.01374-.11274-.00814-.007.006.09735-.04215a3.50925,3.50925,0,0,0,.79315-.46925,13.50659,13.50659,0,0,0,2.89022-3.18,12.876,12.876,0,0,0,1.05169-1.88455c.07479-.16223.13989-.32691.20616-.49139l.20253-.54817a3.60411,3.60411,0,0,1,.76837-1.1564,3.7993,3.7993,0,0,1,.52866-.44678l.47515-.32792c.3127-.21022.61342-.43385.91737-.65417q.90524-.66812,1.7527-1.40113a25.18035,25.18035,0,0,0,3.10107-3.21275,30.63988,30.63988,0,0,0,4.42994-7.7552l.00158-.00385.0041-.00994a.44975.44975,0,0,1,.58139-.24308.43817.43817,0,0,1,.26122.53267c-1.277,4.18219-2.54186,8.35288-4.07852,12.47569-.19937.51609-.39952,1.02649-.65425,1.54609l-.75647,1.46272c-.50165.96753-.99063,1.93906-1.44756,2.92164a29.4244,29.4244,0,0,0-1.2232,2.98381,8.77525,8.77525,0,0,0-.37791,1.50527,2.37187,2.37187,0,0,0-.00556.67732.52348.52348,0,0,0,.07626.21619c.011.03223.03383.038.01268.02621a.218.218,0,0,0-.14449-.02372c-.06327.02709.03882-.02507.10029-.10175a2.94654,2.94654,0,0,0,.22166-.27829c.1484-.20629.29289-.43419.43717-.66257l.88-1.395c.61949-.92554,1.179-1.81465,1.717-2.76726,1.06615-1.88984,2.029-3.84638,2.95876-5.81635,1.85024-3.94519,3.55847-7.96639,5.17092-12.012l.00058-.00144a.44972.44972,0,0,1,.57828-.2507.43857.43857,0,0,1,.25893.55842c-1.405,3.86254-2.70925,7.77626-3.81657,11.72839a56.53442,56.53442,0,0,0-1.37294,5.97314,12.62679,12.62679,0,0,0-.19117,2.96282c.03006.4593.2025.93469.389,1.0127a.97766.97766,0,0,0,.49125.02184,2.37016,2.37016,0,0,0,.62736-.19612,7.56989,7.56989,0,0,0,2.25751-1.8492,21.73588,21.73588,0,0,0,1.84167-2.42342,43.54153,43.54153,0,0,0,2.98138-5.36189,64.80224,64.80224,0,0,0,4.15536-11.551l.00013-.00058a.4477.4477,0,0,1,.54244-.31862.43852.43852,0,0,1,.32926.51242l-.0015.00718-1.27722,6.12291q-.64991,3.0592-1.25168,6.12621c-.39494,2.04465-.776,4.09366-1.07622,6.144a19.893,19.893,0,0,0-.27134,3.02576,1.29459,1.29459,0,0,0,.03656.2653c.00341.01265-.00259-.01417-.01173-.01442l.04038.058a.832.832,0,0,0,.08333.10165.39357.39357,0,0,0,.362.144,2.43737,2.43737,0,0,0,1.15-.64413l.02008-.01735a.22665.22665,0,0,1,.3157.01972.21667.21667,0,0,1,.0236.25851,2.29536,2.29536,0,0,1-1.36941,1.16929,1.26209,1.26209,0,0,1-1.09892-.30622,1.67973,1.67973,0,0,1-.18359-.18778l-.07951-.09814a1.0268,1.0268,0,0,1-.0956-.19126,1.91949,1.91949,0,0,1-.0881-.50483,20.23662,20.23662,0,0,1,.26056-3.20146c.29257-2.0801.66344-4.13759,1.04817-6.19277q1.15129-6.16551,2.58994-12.26625l.87019.201-.00016.00059a65.65767,65.65767,0,0,1-4.21224,11.70863,44.39153,44.39153,0,0,1-3.04315,5.471,22.59659,22.59659,0,0,1-1.91826,2.52244,8.369,8.369,0,0,1-2.55354,2.06659,3.267,3.267,0,0,1-.86744.26729,1.75694,1.75694,0,0,1-1.04943-.11561,1.4912,1.4912,0,0,1-.6726-.83779,3.39563,3.39563,0,0,1-.1836-.85934,13.34837,13.34837,0,0,1,.19708-3.18582,57.32782,57.32782,0,0,1,1.39388-6.06979c1.11766-3.98784,2.42367-7.90647,3.83914-11.79807l.83721.30772-.00058.00147c-1.62179,4.06886-3.33173,8.09419-5.19367,12.0648-.93593,1.98264-1.9047,3.95255-2.98908,5.87492-.537.95391-1.14519,1.9182-1.745,2.8133l-.87246,1.38335c-.14824.23431-.29653.46951-.468.70833a3.76,3.76,0,0,1-.29192.3639,1.13544,1.13544,0,0,1-.56723.36632.71505.71505,0,0,1-.54028-.10045.86146.86146,0,0,1-.26487-.27256,1.36484,1.36484,0,0,1-.21121-.543,3.17129,3.17129,0,0,1-.00191-.94958,9.57636,9.57636,0,0,1,.41436-1.66395,30.242,30.242,0,0,1,1.26-3.07648c.46473-.99932.95914-1.98138,1.46412-2.95531l.75042-1.45086c.22686-.46193.42781-.96891.62109-1.471,1.51426-4.06158,2.786-8.2485,4.05661-12.41164l.84668.27965-.00161.00393a31.53221,31.53221,0,0,1-4.53949,7.99155,26.08938,26.08938,0,0,1-3.20429,3.3385q-.87282.76209-1.80459,1.45089c-.31164.22734-.62071.45819-.93993.67415a5.85661,5.85661,0,0,0-.8705.66377,2.68589,2.68589,0,0,0-.57335.86017c-.12127.32512-.25619.72132-.4158,1.06394a13.77242,13.77242,0,0,1-1.11982,2.02347,14.41932,14.41932,0,0,1-3.101,3.42352,4.44136,4.44136,0,0,1-1.02987.605,1.18828,1.18828,0,0,1-.65855.08741,2.9549,2.9549,0,0,1-.56991-.2355,3.02244,3.02244,0,0,1-1.49894-1.78618,7.32261,7.32261,0,0,1,.36878-4.52071l.1616.07433-.00457.00778c-.8861,1.57883-1.82468,3.12717-2.82828,4.63968a24.9373,24.9373,0,0,1-3.413,4.29019,3.99565,3.99565,0,0,1-1.22287.81187,1.91368,1.91368,0,0,1-.80249.08908,1.78663,1.78663,0,0,1-.78533-.238,2.13,2.13,0,0,1-.89342-1.27282,5.784,5.784,0,0,1-.21152-1.41393,26.76317,26.76317,0,0,1,.5879-5.44113l.86286.22283-.00138.00414a16.22791,16.22791,0,0,1-2.07721,4.02457,10.30062,10.30062,0,0,1-1.54957,1.7128,5.2797,5.2797,0,0,1-2.10646,1.18416,2.49717,2.49717,0,0,1-1.36637-.00958,1.69545,1.69545,0,0,1-1.03637-1.03783,5.16283,5.16283,0,0,1-.12668-2.4177,25.188,25.188,0,0,1,1.157-4.3723l1.232.51743-.00138.00313a38.50685,38.50685,0,0,1-3.32,5.28791,22.935,22.935,0,0,1-2.03885,2.40612,7.99518,7.99518,0,0,1-.61059.557,2.74567,2.74567,0,0,1-.84289.505.97256.97256,0,0,1-.43394.04262.79724.79724,0,0,1-.18508-.04144l-.119-.0384a2.33713,2.33713,0,0,1-.4592-.22357,2.30638,2.30638,0,0,1-.70531-.71989,5.66607,5.66607,0,0,1-.49534-3.31487,29.3893,29.3893,0,0,1,.46447-3.08028c.19129-1.005.40791-2.00114.55143-2.973a6.28812,6.28812,0,0,0,.08451-1.36615c-.00677-.18844-.10173-.34085-.05085-.26077.00624.01272.06011.03709.03916.02845a.63377.63377,0,0,0-.09527-.02706.6461.6461,0,0,0-.18368-.014,1.55416,1.55416,0,0,0-.87936.54529A5.88255,5.88255,0,0,0,20.335,28.228a13.91573,13.91573,0,0,0-1.11915,2.689,14.31374,14.31374,0,0,0-.69651,5.72371,2.19566,2.19566,0,0,0,.398,1.06288c.01172.015.06693.0625.041.04218a.33262.33262,0,0,0-.16-.05261c-.12646-.00283-.11458.02934-.06791-.0052a1.92352,1.92352,0,0,0,.39942-.392,15.62935,15.62935,0,0,0,1.51581-2.50808c.90352-1.79546,1.71409-3.66574,2.50441-5.52785l.0027-.00637a.45028.45028,0,0,1,.58477-.23638A.4379.4379,0,0,1,23.99035,29.55977Z" fill="#fdba4d"></path> <path d="M81.83069,27.38781a4.10575,4.10575,0,0,0,.39622-1.04139.67448.67448,0,0,0-.00377-.351c-.01749-.02512-.01132-.03832-.14564-.05761a2.34449,2.34449,0,0,0-.99319.25732,6.764,6.764,0,0,0-1.02359.5865A7.80787,7.80787,0,0,0,78.32794,28.391a4.13025,4.13025,0,0,0-.57321.96577,6.33291,6.33291,0,0,0-.30526,1.12009,4.92046,4.92046,0,0,0,.01141,2.24238c.12046.326.261.45571.48044.45615a1.42089,1.42089,0,0,0,.82406-.40784,13.3861,13.3861,0,0,0,2.64276-3.9858.45147.45147,0,0,1,.59542-.21163.442.442,0,0,1,.24635.4971,12.39041,12.39041,0,0,0-.32075,2.15484,4.0708,4.0708,0,0,0,.2766,1.987.82293.82293,0,0,0,.5725.45413,2.67638,2.67638,0,0,0,.949-.07569,3.8293,3.8293,0,0,0,1.778-.9907A9.38235,9.38235,0,0,0,87.67,28.87848a20.74127,20.74127,0,0,0,.9721-4.31571l.86821.18254a14.70907,14.70907,0,0,0-.79389,4.65842,4.008,4.008,0,0,0,.545,2.11018,1.86656,1.86656,0,0,0,1.72094.82113,3.64029,3.64029,0,0,0,1.91678-1.01372,11.50686,11.50686,0,0,0,1.56559-1.78288,29.03963,29.03963,0,0,0,2.45408-4.17538,62.51579,62.51579,0,0,0,3.54311-9.07844c.475-1.554.89862-3.12436,1.22742-4.70663.16215-.79062.30228-1.58579.38356-2.37542a8.9023,8.9023,0,0,0,.05277-1.1648,3.02419,3.02419,0,0,0-.058-.52895,1.656,1.656,0,0,0-.0845-.24079l.00046.00009.2261.06048a1.34964,1.34964,0,0,0-.39283.39142,5.98475,5.98475,0,0,0-.46328.76992,17.32518,17.32518,0,0,0-.75236,1.72772c-.45008,1.1871-.83088,2.40926-1.18023,3.63953-.695,2.46319-1.259,4.96753-1.73294,7.48474-.4701,2.51795-.84739,5.05357-1.08255,7.59434A33.45705,33.45705,0,0,0,96.60766,36.49v.00006l-.42651-.52041c-.07868-.01893-.01849.01079.08682-.02632a1.91353,1.91353,0,0,0,.36795-.16461,6.264,6.264,0,0,0,.80644-.56556,17.2558,17.2558,0,0,0,1.53251-1.43531,37.03485,37.03485,0,0,0,2.75924-3.26839,35.18382,35.18382,0,0,0,2.38162-3.55655,15.77349,15.77349,0,0,0,.94591-1.89513,6.1807,6.1807,0,0,0,.31341-.98288,1.44035,1.44035,0,0,0-.02775-.89816l-.00731-.0135a.2171.2171,0,0,1,.09244-.29634.22577.22577,0,0,1,.29988.08694,1.82558,1.82558,0,0,1,.138,1.20682,6.65615,6.65615,0,0,1-.28372,1.08511,16.31373,16.31373,0,0,1-.87839,2.01532,35.83778,35.83778,0,0,1-2.2422,3.75228,37.90338,37.90338,0,0,1-2.65828,3.49577,18.32444,18.32444,0,0,1-1.5586,1.61424,7.45712,7.45712,0,0,1-.94124.73044,3.21091,3.21091,0,0,1-.61422.30852,1.47546,1.47546,0,0,1-.98626.03846.61118.61118,0,0,1-.42083-.48309l-.00587-.03753,0-.00008a34.53426,34.53426,0,0,1,.10128-7.86031c.277-2.58444.69626-5.144,1.20844-7.68389.51629-2.53911,1.12211-5.05982,1.86347-7.54971.373-1.24447.77749-2.48159,1.26006-3.70142a18.2058,18.2058,0,0,1,.82059-1.81027,6.83689,6.83689,0,0,1,.55092-.88256,2.71452,2.71452,0,0,1,.39319-.42878,1.12813,1.12813,0,0,1,.73173-.312.40007.40007,0,0,1,.22643.06056l.00431.00274a1.201,1.201,0,0,1,.49982.80629,3.84389,3.84389,0,0,1,.0783.6872,9.72154,9.72154,0,0,1-.05661,1.28132c-.08627.83594-.231,1.65239-.397,2.46279-.33655,1.61918-.76625,3.21027-1.24751,4.78518a63.36465,63.36465,0,0,1-3.5947,9.20831,29.87614,29.87614,0,0,1-2.53182,4.3037A12.35861,12.35861,0,0,1,93.501,31.97007a4.48714,4.48714,0,0,1-2.42637,1.23763A2.76819,2.76819,0,0,1,88.518,32.00124a4.82506,4.82506,0,0,1-.69525-2.57181,15.50238,15.50238,0,0,1,.84117-4.96676.44739.44739,0,0,1,.5579-.2881.44039.44039,0,0,1,.31036.47065,21.54533,21.54533,0,0,1-1.01606,4.51659,10.20339,10.20339,0,0,1-2.39169,4.06793,4.72991,4.72991,0,0,1-2.19025,1.2113,3.42155,3.42155,0,0,1-1.33725.08128,1.729,1.729,0,0,1-1.17913-.89878,4.80789,4.80789,0,0,1-.38151-2.44623,13.19312,13.19312,0,0,1,.34631-2.32287l.84174.28546a21.34087,21.34087,0,0,1-1.22112,2.24441,9.187,9.187,0,0,1-1.65287,2.04677,2.24191,2.24191,0,0,1-1.42234.62158,1.31092,1.31092,0,0,1-.87532-.34252,1.73967,1.73967,0,0,1-.43707-.705A5.65117,5.65117,0,0,1,76.56986,30.32a7.15826,7.15826,0,0,1,.3508-1.2791,4.96942,4.96942,0,0,1,.69432-1.17922,8.67869,8.67869,0,0,1,1.93307-1.79886,7.64827,7.64827,0,0,1,1.16317-.665,3.11042,3.11042,0,0,1,1.44292-.33412,1.0368,1.0368,0,0,1,.87983.56213,1.44676,1.44676,0,0,1,.07364.87169A4.88108,4.88108,0,0,1,82.6294,27.782a.45086.45086,0,0,1-.59757.20243.435.435,0,0,1-.2063-.58643l.00142-.00282Z" fill="#fdba4d"></path> <path d="M110.79884,18.298c-1.55459,1.5405-3.0838,3.133-4.5307,4.77809a37.99021,37.99021,0,0,0-3.97346,5.15231,5.1966,5.1966,0,0,0-.60475,1.36561.59653.59653,0,0,0,.01.42372c.01.04308.17541.10982.39933.11087a6.70846,6.70846,0,0,0,2.99821-.79271,15.32854,15.32854,0,0,0,4.8607-4.15574l.0003-.00038a.45293.45293,0,0,1,.62661-.08469.43387.43387,0,0,1,.1251.55526,12.77614,12.77614,0,0,0-1.43391,3.64579,3.57591,3.57591,0,0,0,.0786,1.78887,2.32324,2.32324,0,0,0,1.13311,1.25117,8.34543,8.34543,0,0,0,3.81654.65637,30.33653,30.33653,0,0,0,4.061-.36853c2.70655-.40744,5.392-1.018,8.06568-1.66854,2.674-.65515,5.33733-1.367,8.00521-2.07289a.448.448,0,0,1,.548.30927.43787.43787,0,0,1-.31516.5378l-.00008,0c-2.66674.70555-5.33479,1.41874-8.02161,2.07706-2.68767.65367-5.39152,1.26949-8.14788,1.68469a31.21,31.21,0,0,1-4.1851.37842,9.14156,9.14156,0,0,1-4.25753-.76493,3.21636,3.21636,0,0,1-1.5451-1.72735,4.413,4.413,0,0,1-.11705-2.22908,13.56715,13.56715,0,0,1,1.52807-3.91416l.75168.47055-.00044.00058a17.359,17.359,0,0,1-5.17485,4.394,7.594,7.594,0,0,1-3.40068.9065,1.21139,1.21139,0,0,1-1.32518-1.58508,5.97,5.97,0,0,1,.67118-1.65613,38.74719,38.74719,0,0,1,3.96082-5.404c1.43771-1.695,2.9019-3.35183,4.42891-4.97725a.67972.67972,0,0,1,.94774-.03778.64959.64959,0,0,1,.03849.93l-.01457.015Z" fill="#fdba4d"></path> <path d="M17.97355,36.68859a7.51492,7.51492,0,0,1-2.47274,1.29911,4.71935,4.71935,0,0,1-2.86915-.09684,10.63965,10.63965,0,0,1-4.19227-3.446L6.78054,32.41747a8.7809,8.7809,0,0,0-1.79536-1.71866,1.902,1.902,0,0,0-1-.33521,1.50631,1.50631,0,0,0-.92282.35192,5.09506,5.09506,0,0,0-1.12009,2.06485,20.1317,20.1317,0,0,0-.86367,4.98768,14.60753,14.60753,0,0,0,.41027,4.94355,2.86672,2.86672,0,0,0,.47762.94122.55213.55213,0,0,0,.55891.2411,3.51565,3.51565,0,0,0,.47143-.15439c.17572-.075.35144-.15611.5225-.25024a6.47415,6.47415,0,0,0,.98538-.67785,16.04969,16.04969,0,0,0,3.18581-3.87117,60.22063,60.22063,0,0,0,4.48891-9.29954c1.28054-3.21732,2.42845-6.4928,3.53669-9.78384,1.11523-3.28946,2.15692-6.60623,3.3-9.89948.57092-1.647,1.15553-3.2918,1.80871-4.92107.32858-.8142.67438-1.62445,1.07273-2.42283a12.26685,12.26685,0,0,1,.6676-1.18255A3.80431,3.80431,0,0,1,23.57055.32366L23.57144.323l.422-.323.22673.50685a4.752,4.752,0,0,1,.30363,2.218,12.98,12.98,0,0,1-.29433,2.084A21.6547,21.6547,0,0,1,22.88014,8.745a17.1729,17.1729,0,0,1-5.02728,6.69856,11.753,11.753,0,0,1-3.86522,1.93908,8.67723,8.67723,0,0,1-4.382.13739,6.68372,6.68372,0,0,1-3.71278-2.32342,6.0073,6.0073,0,0,1-1.274-4.06606.36788.36788,0,0,1,.73122-.01591l.00071.00682a6.45677,6.45677,0,0,0,1.283,3.49712,5.69626,5.69626,0,0,0,3.20083,1.92011,9.10906,9.10906,0,0,0,7.33924-1.9567,16.45325,16.45325,0,0,0,4.75336-6.2618,20.67145,20.67145,0,0,0,1.32251-3.73952A12.42459,12.42459,0,0,0,23.575,2.65252a3.98607,3.98607,0,0,0-.1661-1.7769l.6485.18381-.0005.00039A5.74494,5.74494,0,0,0,22.72338,3.005c-.3735.76479-.70554,1.5603-1.02123,2.36305-.62851,1.60812-1.19554,3.248-1.74942,4.89275l-3.25681,9.91049c-1.10108,3.30283-2.24391,6.59693-3.52579,9.84658a61.18712,61.18712,0,0,1-4.54578,9.48246,17.06336,17.06336,0,0,1-3.407,4.14664,6.08351,6.08351,0,0,1-2.52971,1.3292,1.69409,1.69409,0,0,1-1.572-.64032,3.88973,3.88973,0,0,1-.662-1.30937A15.51568,15.51568,0,0,1,.05906,37.698a21.01147,21.01147,0,0,1,.99437-5.21716A5.79347,5.79347,0,0,1,2.4759,30.0474a2.42487,2.42487,0,0,1,1.5061-.559,2.79084,2.79084,0,0,1,1.48367.47633,9.52775,9.52775,0,0,1,1.99544,1.8999l1.65907,2.03623A9.888,9.888,0,0,0,12.927,37.09119a3.76164,3.76164,0,0,0,2.3302.06889A6.63819,6.63819,0,0,0,17.42083,35.999l.00821-.00624a.45273.45273,0,0,1,.62707.0787.4332.4332,0,0,1-.0802.61535Z" fill="#fdba4d"></path> <path d="M23.99035,29.55977a54.31589,54.31589,0,0,1-2.27273,5.73316,16.55453,16.55453,0,0,1-1.56427,2.78025,3.09022,3.09022,0,0,1-.68649.69031,1.23743,1.23743,0,0,1-.79034.23282,1.04455,1.04455,0,0,1-.51537-.19349,1.65882,1.65882,0,0,1-.24077-.21907,3.3616,3.3616,0,0,1-.72581-1.73856,11.47875,11.47875,0,0,1,.05012-3.23074,19.75388,19.75388,0,0,1,.68766-3.07886,15.17761,15.17761,0,0,1,1.23073-2.94736,7.15109,7.15109,0,0,1,.9851-1.37407,2.82121,2.82121,0,0,1,1.74523-.96026,2.01495,2.01495,0,0,1,.5883.03981,1.98761,1.98761,0,0,1,.27713.07982,1.21851,1.21851,0,0,1,.37332.21782,1.62649,1.62649,0,0,1,.48476,1.13311,7.338,7.338,0,0,1-.12586,1.67063c-.176,1.03795-.41449,2.0273-.62384,3.01732a26.68535,26.68535,0,0,0-.49808,2.944,4.7655,4.7655,0,0,0,.289,2.6447,1.19455,1.19455,0,0,0,.35389.3785c.1106.09611.42942.16863.249.13751a1.9705,1.9705,0,0,0,.46016-.31033,6.9079,6.9079,0,0,0,.51962-.4889,21.86132,21.86132,0,0,0,1.898-2.30932,29.29085,29.29085,0,0,0,3.056-5.16781l.00154-.00284.02906-.054a.675.675,0,0,1,.90362-.27348.65266.65266,0,0,1,.29933.84487,17.96067,17.96067,0,0,0-1.35422,4.05393,4.34442,4.34442,0,0,0-.01666,1.93742.75464.75464,0,0,0,.43963.5131,1.43324,1.43324,0,0,0,.84148.00768,6.50069,6.50069,0,0,0,3.17774-2.539A12.9783,12.9783,0,0,0,35.436,29.91806l.00128-.00393a.44854.44854,0,0,1,.56181-.28371.43794.43794,0,0,1,.30409.4914l-.00271.01522a25.89932,25.89932,0,0,0-.54861,5.246c.02515.81883.2418,1.72355.68036,1.93858a.8672.8672,0,0,0,.38141.101,1.62119,1.62119,0,0,0,.24375-.00344.57943.57943,0,0,0,.16311-.04113,3.28914,3.28914,0,0,0,.90561-.63461,24.39711,24.39711,0,0,0,3.24224-4.13155c.97857-1.48859,1.9067-3.03457,2.76746-4.58478L44.14,28.02a.90442.90442,0,0,1,1.2237-.31744.87481.87481,0,0,1,.39076,1.06,6.4955,6.4955,0,0,0-.36544,3.87483,2.05422,2.05422,0,0,0,1.02474,1.24768,1.36958,1.36958,0,0,0,.19738.09466l.10362.04257c.03907.018.081.03079.02832.01374-.11274-.00814-.007.006.09735-.04215a3.50925,3.50925,0,0,0,.79315-.46925,13.50659,13.50659,0,0,0,2.89022-3.18,12.876,12.876,0,0,0,1.05169-1.88455c.07479-.16223.13989-.32691.20616-.49139l.20253-.54817a3.60411,3.60411,0,0,1,.76837-1.1564,3.7993,3.7993,0,0,1,.52866-.44678l.47515-.32792c.3127-.21022.61342-.43385.91737-.65417q.90524-.66812,1.7527-1.40113a25.18035,25.18035,0,0,0,3.10107-3.21275,30.63988,30.63988,0,0,0,4.42994-7.7552l.00158-.00385.0041-.00994a.44975.44975,0,0,1,.58139-.24308.43817.43817,0,0,1,.26122.53267c-1.277,4.18219-2.54186,8.35288-4.07852,12.47569-.19937.51609-.39952,1.02649-.65425,1.54609l-.75647,1.46272c-.50165.96753-.99063,1.93906-1.44756,2.92164a29.4244,29.4244,0,0,0-1.2232,2.98381,8.77525,8.77525,0,0,0-.37791,1.50527,2.37187,2.37187,0,0,0-.00556.67732.52348.52348,0,0,0,.07626.21619c.011.03223.03383.038.01268.02621a.218.218,0,0,0-.14449-.02372c-.06327.02709.03882-.02507.10029-.10175a2.94654,2.94654,0,0,0,.22166-.27829c.1484-.20629.29289-.43419.43717-.66257l.88-1.395c.61949-.92554,1.179-1.81465,1.717-2.76726,1.06615-1.88984,2.029-3.84638,2.95876-5.81635,1.85024-3.94519,3.55847-7.96639,5.17092-12.012l.00058-.00144a.44972.44972,0,0,1,.57828-.2507.43857.43857,0,0,1,.25893.55842c-1.405,3.86254-2.70925,7.77626-3.81657,11.72839a56.53442,56.53442,0,0,0-1.37294,5.97314,12.62679,12.62679,0,0,0-.19117,2.96282c.03006.4593.2025.93469.389,1.0127a.97766.97766,0,0,0,.49125.02184,2.37016,2.37016,0,0,0,.62736-.19612,7.56989,7.56989,0,0,0,2.25751-1.8492,21.73588,21.73588,0,0,0,1.84167-2.42342,43.54153,43.54153,0,0,0,2.98138-5.36189,64.80224,64.80224,0,0,0,4.15536-11.551l.00013-.00058a.4477.4477,0,0,1,.54244-.31862.43852.43852,0,0,1,.32926.51242l-.0015.00718-1.27722,6.12291q-.64991,3.0592-1.25168,6.12621c-.39494,2.04465-.776,4.09366-1.07622,6.144a19.893,19.893,0,0,0-.27134,3.02576,1.29459,1.29459,0,0,0,.03656.2653c.00341.01265-.00259-.01417-.01173-.01442l.04038.058a.832.832,0,0,0,.08333.10165.39357.39357,0,0,0,.362.144,2.43737,2.43737,0,0,0,1.15-.64413l.02008-.01735a.22665.22665,0,0,1,.3157.01972.21667.21667,0,0,1,.0236.25851,2.29536,2.29536,0,0,1-1.36941,1.16929,1.26209,1.26209,0,0,1-1.09892-.30622,1.67973,1.67973,0,0,1-.18359-.18778l-.07951-.09814a1.0268,1.0268,0,0,1-.0956-.19126,1.91949,1.91949,0,0,1-.0881-.50483,20.23662,20.23662,0,0,1,.26056-3.20146c.29257-2.0801.66344-4.13759,1.04817-6.19277q1.15129-6.16551,2.58994-12.26625l.87019.201-.00016.00059a65.65767,65.65767,0,0,1-4.21224,11.70863,44.39153,44.39153,0,0,1-3.04315,5.471,22.59659,22.59659,0,0,1-1.91826,2.52244,8.369,8.369,0,0,1-2.55354,2.06659,3.267,3.267,0,0,1-.86744.26729,1.75694,1.75694,0,0,1-1.04943-.11561,1.4912,1.4912,0,0,1-.6726-.83779,3.39563,3.39563,0,0,1-.1836-.85934,13.34837,13.34837,0,0,1,.19708-3.18582,57.32782,57.32782,0,0,1,1.39388-6.06979c1.11766-3.98784,2.42367-7.90647,3.83914-11.79807l.83721.30772-.00058.00147c-1.62179,4.06886-3.33173,8.09419-5.19367,12.0648-.93593,1.98264-1.9047,3.95255-2.98908,5.87492-.537.95391-1.14519,1.9182-1.745,2.8133l-.87246,1.38335c-.14824.23431-.29653.46951-.468.70833a3.76,3.76,0,0,1-.29192.3639,1.13544,1.13544,0,0,1-.56723.36632.71505.71505,0,0,1-.54028-.10045.86146.86146,0,0,1-.26487-.27256,1.36484,1.36484,0,0,1-.21121-.543,3.17129,3.17129,0,0,1-.00191-.94958,9.57636,9.57636,0,0,1,.41436-1.66395,30.242,30.242,0,0,1,1.26-3.07648c.46473-.99932.95914-1.98138,1.46412-2.95531l.75042-1.45086c.22686-.46193.42781-.96891.62109-1.471,1.51426-4.06158,2.786-8.2485,4.05661-12.41164l.84668.27965-.00161.00393a31.53221,31.53221,0,0,1-4.53949,7.99155,26.08938,26.08938,0,0,1-3.20429,3.3385q-.87282.76209-1.80459,1.45089c-.31164.22734-.62071.45819-.93993.67415a5.85661,5.85661,0,0,0-.8705.66377,2.68589,2.68589,0,0,0-.57335.86017c-.12127.32512-.25619.72132-.4158,1.06394a13.77242,13.77242,0,0,1-1.11982,2.02347,14.41932,14.41932,0,0,1-3.101,3.42352,4.44136,4.44136,0,0,1-1.02987.605,1.18828,1.18828,0,0,1-.65855.08741,2.9549,2.9549,0,0,1-.56991-.2355,3.02244,3.02244,0,0,1-1.49894-1.78618,7.32261,7.32261,0,0,1,.36878-4.52071l.1616.07433-.00457.00778c-.8861,1.57883-1.82468,3.12717-2.82828,4.63968a24.9373,24.9373,0,0,1-3.413,4.29019,3.99565,3.99565,0,0,1-1.22287.81187,1.91368,1.91368,0,0,1-.80249.08908,1.78663,1.78663,0,0,1-.78533-.238,2.13,2.13,0,0,1-.89342-1.27282,5.784,5.784,0,0,1-.21152-1.41393,26.76317,26.76317,0,0,1,.5879-5.44113l.86286.22283-.00138.00414a16.22791,16.22791,0,0,1-2.07721,4.02457,10.30062,10.30062,0,0,1-1.54957,1.7128,5.2797,5.2797,0,0,1-2.10646,1.18416,2.49717,2.49717,0,0,1-1.36637-.00958,1.69545,1.69545,0,0,1-1.03637-1.03783,5.16283,5.16283,0,0,1-.12668-2.4177,25.188,25.188,0,0,1,1.157-4.3723l1.232.51743-.00138.00313a38.50685,38.50685,0,0,1-3.32,5.28791,22.935,22.935,0,0,1-2.03885,2.40612,7.99518,7.99518,0,0,1-.61059.557,2.74567,2.74567,0,0,1-.84289.505.97256.97256,0,0,1-.43394.04262.79724.79724,0,0,1-.18508-.04144l-.119-.0384a2.33713,2.33713,0,0,1-.4592-.22357,2.30638,2.30638,0,0,1-.70531-.71989,5.66607,5.66607,0,0,1-.49534-3.31487,29.3893,29.3893,0,0,1,.46447-3.08028c.19129-1.005.40791-2.00114.55143-2.973a6.28812,6.28812,0,0,0,.08451-1.36615c-.00677-.18844-.10173-.34085-.05085-.26077.00624.01272.06011.03709.03916.02845a.63377.63377,0,0,0-.09527-.02706.6461.6461,0,0,0-.18368-.014,1.55416,1.55416,0,0,0-.87936.54529A5.88255,5.88255,0,0,0,20.335,28.228a13.91573,13.91573,0,0,0-1.11915,2.689,14.31374,14.31374,0,0,0-.69651,5.72371,2.19566,2.19566,0,0,0,.398,1.06288c.01172.015.06693.0625.041.04218a.33262.33262,0,0,0-.16-.05261c-.12646-.00283-.11458.02934-.06791-.0052a1.92352,1.92352,0,0,0,.39942-.392,15.62935,15.62935,0,0,0,1.51581-2.50808c.90352-1.79546,1.71409-3.66574,2.50441-5.52785l.0027-.00637a.45028.45028,0,0,1,.58477-.23638A.4379.4379,0,0,1,23.99035,29.55977Z" fill="#fdba4d"></path> <path d="M81.83069,27.38781a4.10575,4.10575,0,0,0,.39622-1.04139.67448.67448,0,0,0-.00377-.351c-.01749-.02512-.01132-.03832-.14564-.05761a2.34449,2.34449,0,0,0-.99319.25732,6.764,6.764,0,0,0-1.02359.5865A7.80787,7.80787,0,0,0,78.32794,28.391a4.13025,4.13025,0,0,0-.57321.96577,6.33291,6.33291,0,0,0-.30526,1.12009,4.92046,4.92046,0,0,0,.01141,2.24238c.12046.326.261.45571.48044.45615a1.42089,1.42089,0,0,0,.82406-.40784,13.3861,13.3861,0,0,0,2.64276-3.9858.45147.45147,0,0,1,.59542-.21163.442.442,0,0,1,.24635.4971,12.39041,12.39041,0,0,0-.32075,2.15484,4.0708,4.0708,0,0,0,.2766,1.987.82293.82293,0,0,0,.5725.45413,2.67638,2.67638,0,0,0,.949-.07569,3.8293,3.8293,0,0,0,1.778-.9907A9.38235,9.38235,0,0,0,87.67,28.87848a20.74127,20.74127,0,0,0,.9721-4.31571l.86821.18254a14.70907,14.70907,0,0,0-.79389,4.65842,4.008,4.008,0,0,0,.545,2.11018,1.86656,1.86656,0,0,0,1.72094.82113,3.64029,3.64029,0,0,0,1.91678-1.01372,11.50686,11.50686,0,0,0,1.56559-1.78288,29.03963,29.03963,0,0,0,2.45408-4.17538,62.51579,62.51579,0,0,0,3.54311-9.07844c.475-1.554.89862-3.12436,1.22742-4.70663.16215-.79062.30228-1.58579.38356-2.37542a8.9023,8.9023,0,0,0,.05277-1.1648,3.02419,3.02419,0,0,0-.058-.52895,1.656,1.656,0,0,0-.0845-.24079l.00046.00009.2261.06048a1.34964,1.34964,0,0,0-.39283.39142,5.98475,5.98475,0,0,0-.46328.76992,17.32518,17.32518,0,0,0-.75236,1.72772c-.45008,1.1871-.83088,2.40926-1.18023,3.63953-.695,2.46319-1.259,4.96753-1.73294,7.48474-.4701,2.51795-.84739,5.05357-1.08255,7.59434A33.45705,33.45705,0,0,0,96.60766,36.49v.00006l-.42651-.52041c-.07868-.01893-.01849.01079.08682-.02632a1.91353,1.91353,0,0,0,.36795-.16461,6.264,6.264,0,0,0,.80644-.56556,17.2558,17.2558,0,0,0,1.53251-1.43531,37.03485,37.03485,0,0,0,2.75924-3.26839,35.18382,35.18382,0,0,0,2.38162-3.55655,15.77349,15.77349,0,0,0,.94591-1.89513,6.1807,6.1807,0,0,0,.31341-.98288,1.44035,1.44035,0,0,0-.02775-.89816l-.00731-.0135a.2171.2171,0,0,1,.09244-.29634.22577.22577,0,0,1,.29988.08694,1.82558,1.82558,0,0,1,.138,1.20682,6.65615,6.65615,0,0,1-.28372,1.08511,16.31373,16.31373,0,0,1-.87839,2.01532,35.83778,35.83778,0,0,1-2.2422,3.75228,37.90338,37.90338,0,0,1-2.65828,3.49577,18.32444,18.32444,0,0,1-1.5586,1.61424,7.45712,7.45712,0,0,1-.94124.73044,3.21091,3.21091,0,0,1-.61422.30852,1.47546,1.47546,0,0,1-.98626.03846.61118.61118,0,0,1-.42083-.48309l-.00587-.03753,0-.00008a34.53426,34.53426,0,0,1,.10128-7.86031c.277-2.58444.69626-5.144,1.20844-7.68389.51629-2.53911,1.12211-5.05982,1.86347-7.54971.373-1.24447.77749-2.48159,1.26006-3.70142a18.2058,18.2058,0,0,1,.82059-1.81027,6.83689,6.83689,0,0,1,.55092-.88256,2.71452,2.71452,0,0,1,.39319-.42878,1.12813,1.12813,0,0,1,.73173-.312.40007.40007,0,0,1,.22643.06056l.00431.00274a1.201,1.201,0,0,1,.49982.80629,3.84389,3.84389,0,0,1,.0783.6872,9.72154,9.72154,0,0,1-.05661,1.28132c-.08627.83594-.231,1.65239-.397,2.46279-.33655,1.61918-.76625,3.21027-1.24751,4.78518a63.36465,63.36465,0,0,1-3.5947,9.20831,29.87614,29.87614,0,0,1-2.53182,4.3037A12.35861,12.35861,0,0,1,93.501,31.97007a4.48714,4.48714,0,0,1-2.42637,1.23763A2.76819,2.76819,0,0,1,88.518,32.00124a4.82506,4.82506,0,0,1-.69525-2.57181,15.50238,15.50238,0,0,1,.84117-4.96676.44739.44739,0,0,1,.5579-.2881.44039.44039,0,0,1,.31036.47065,21.54533,21.54533,0,0,1-1.01606,4.51659,10.20339,10.20339,0,0,1-2.39169,4.06793,4.72991,4.72991,0,0,1-2.19025,1.2113,3.42155,3.42155,0,0,1-1.33725.08128,1.729,1.729,0,0,1-1.17913-.89878,4.80789,4.80789,0,0,1-.38151-2.44623,13.19312,13.19312,0,0,1,.34631-2.32287l.84174.28546a21.34087,21.34087,0,0,1-1.22112,2.24441,9.187,9.187,0,0,1-1.65287,2.04677,2.24191,2.24191,0,0,1-1.42234.62158,1.31092,1.31092,0,0,1-.87532-.34252,1.73967,1.73967,0,0,1-.43707-.705A5.65117,5.65117,0,0,1,76.56986,30.32a7.15826,7.15826,0,0,1,.3508-1.2791,4.96942,4.96942,0,0,1,.69432-1.17922,8.67869,8.67869,0,0,1,1.93307-1.79886,7.64827,7.64827,0,0,1,1.16317-.665,3.11042,3.11042,0,0,1,1.44292-.33412,1.0368,1.0368,0,0,1,.87983.56213,1.44676,1.44676,0,0,1,.07364.87169A4.88108,4.88108,0,0,1,82.6294,27.782a.45086.45086,0,0,1-.59757.20243.435.435,0,0,1-.2063-.58643l.00142-.00282Z" fill="#fdba4d"></path> <path d="M110.79884,18.298c-1.55459,1.5405-3.0838,3.133-4.5307,4.77809a37.99021,37.99021,0,0,0-3.97346,5.15231,5.1966,5.1966,0,0,0-.60475,1.36561.59653.59653,0,0,0,.01.42372c.01.04308.17541.10982.39933.11087a6.70846,6.70846,0,0,0,2.99821-.79271,15.32854,15.32854,0,0,0,4.8607-4.15574l.0003-.00038a.45293.45293,0,0,1,.62661-.08469.43387.43387,0,0,1,.1251.55526,12.77614,12.77614,0,0,0-1.43391,3.64579,3.57591,3.57591,0,0,0,.0786,1.78887,2.32324,2.32324,0,0,0,1.13311,1.25117,8.34543,8.34543,0,0,0,3.81654.65637,30.33653,30.33653,0,0,0,4.061-.36853c2.70655-.40744,5.392-1.018,8.06568-1.66854,2.674-.65515,5.33733-1.367,8.00521-2.07289a.448.448,0,0,1,.548.30927.43787.43787,0,0,1-.31516.5378l-.00008,0c-2.66674.70555-5.33479,1.41874-8.02161,2.07706-2.68767.65367-5.39152,1.26949-8.14788,1.68469a31.21,31.21,0,0,1-4.1851.37842,9.14156,9.14156,0,0,1-4.25753-.76493,3.21636,3.21636,0,0,1-1.5451-1.72735,4.413,4.413,0,0,1-.11705-2.22908,13.56715,13.56715,0,0,1,1.52807-3.91416l.75168.47055-.00044.00058a17.359,17.359,0,0,1-5.17485,4.394,7.594,7.594,0,0,1-3.40068.9065,1.21139,1.21139,0,0,1-1.32518-1.58508,5.97,5.97,0,0,1,.67118-1.65613,38.74719,38.74719,0,0,1,3.96082-5.404c1.43771-1.695,2.9019-3.35183,4.42891-4.97725a.67972.67972,0,0,1,.94774-.03778.64959.64959,0,0,1,.03849.93l-.01457.015Z" fill="#fdba4d"></path> </svg> 