<svg id="Layer_1" data-name="Layer 1" xmlns="http://www.w3.org/2000/svg" width="130" height="40" viewBox="0 0 130 40"><title>harriet-taub-signature</title><path d="M.49883,17.504a5.12025,5.12025,0,0,0,1.683,3.162,8.76626,8.76626,0,0,0,3.30948,1.70625,17.19259,17.19259,0,0,0,3.78367.50946l1.92687-.01314,1.92548-.17822c1.28346-.11555,2.552-.39713,3.826-.59926,1.25785-.30476,2.52376-.57566,3.77425-.90734a62.32358,62.32358,0,0,0,7.35563-2.44658,35.31038,35.31038,0,0,0,6.81322-3.58278,18.98373,18.98373,0,0,0,5.38329-5.31487,11.02194,11.02194,0,0,0,1.50845-3.412,7.83162,7.83162,0,0,0,.09272-3.65582A2.96174,2.96174,0,0,0,41.1402,1.2497,2.11509,2.11509,0,0,0,39.602.7393a9.2187,9.2187,0,0,0-3.59047.91742,17.54435,17.54435,0,0,0-3.18,2.08855c-1.013.78327-1.95313,1.66248-2.887,2.54315a50.917,50.917,0,0,0-5.0879,5.77306,23.61843,23.61843,0,0,0-2.05448,3.203,10.6609,10.6609,0,0,0-1.119,3.542,5.25083,5.25083,0,0,0,.07325,1.7933,1.77684,1.77684,0,0,0,.82452,1.273,1.12784,1.12784,0,0,0,.69493-.07454,2.947,2.947,0,0,0,.74531-.41916A10.68767,10.68767,0,0,0,25.356,20.06872a10.4766,10.4766,0,0,1,3.00566-2.64915,2.1246,2.1246,0,0,1,1.15615-.23544,1.82772,1.82772,0,0,1,1.0405.63249,9.22416,9.22416,0,0,1,.98424,1.76437c.26472.55017.60646,1.13022.99243,1.18993a3.90016,3.90016,0,0,0,1.67444-.37973c1.17873-.4687,2.34371-1.06783,3.55729-1.57511a17.89226,17.89226,0,0,1,1.87668-.67586,10.15846,10.15846,0,0,1,.99-.23231,2.22169,2.22169,0,0,1,1.15993.072,1.68024,1.68024,0,0,1,.8925.79958,6.85435,6.85435,0,0,1,.40719.93756c.235.60144.46646,1.01741.97522.96176a4.90586,4.90586,0,0,0,1.73037-.4452c.56788-.25254,1.13823-.58415,1.78009-.83563a5.57344,5.57344,0,0,1,2.04065-.395,9.30476,9.30476,0,0,1,2.02464.26261l-.44028.48436c-.03461-.17878-.06353-.36181-.08555-.54305l.02487-.46658a7.95982,7.95982,0,0,1,.12016-.89229q.1629-.86948.3859-1.71071c.29026-1.12587.62334-2.23407.97544-3.33514.70189-2.20375,1.46886-4.37864,2.27471-6.54661a.37485.37485,0,0,1,.4794-.21919.36774.36774,0,0,1,.22191.47356l-.00131.00352c-.79982,2.15168-1.56584,4.3239-2.262,6.51-.34953,1.0928-.67949,2.19147-.964,3.29536-.14622.55128-.27077,1.10581-.37421,1.65683a7.31259,7.31259,0,0,0-.11077.81674l-.02327.39455a2.55928,2.55928,0,0,1,.04081.31073l.0078.11008a.36083.36083,0,0,1-.33745.38359.379.379,0,0,1-.1108-.00916,5.78177,5.78177,0,0,0-3.61308.10253c-1.117.44981-2.29525,1.29187-3.77777,1.33206A1.41785,1.41785,0,0,1,42.92364,20.94a3.12719,3.12719,0,0,1-.52876-.96c-.22867-.60586-.43907-1.18548-.86927-1.31109a3.05529,3.05529,0,0,0-1.67433.18011,17.16213,17.16213,0,0,0-1.79253.64629c-1.18653.49516-2.336,1.08843-3.57478,1.58219a4.30867,4.30867,0,0,1-2.1014.41587,1.643,1.643,0,0,1-.9896-.69581,5.51024,5.51024,0,0,1-.52251-.89421,8.91751,8.91751,0,0,0-.88631-1.61452,1.1,1.1,0,0,0-.57812-.375,1.41531,1.41531,0,0,0-.723.17194,9.91183,9.91183,0,0,0-2.76855,2.47308,11.32093,11.32093,0,0,1-1.43662,1.40428,3.68688,3.68688,0,0,1-.94662.52866,1.97966,1.97966,0,0,1-.55705.1318,1.21462,1.21462,0,0,1-.65149-.05824,2.42517,2.42517,0,0,1-1.29323-1.795,5.96217,5.96217,0,0,1-.08913-2.04326,15.0825,15.0825,0,0,1,3.31421-7.10252A51.64227,51.64227,0,0,1,29.4208,5.76214c.94968-.89587,1.90465-1.78889,2.94415-2.59326A18.24715,18.24715,0,0,1,35.68183.99446,9.89252,9.89252,0,0,1,39.60209.00131a2.86511,2.86511,0,0,1,2.05643.7169,3.66091,3.66091,0,0,1,.95171,1.89339,8.57045,8.57045,0,0,1-.09618,3.99081A11.74891,11.74891,0,0,1,40.91251,10.232a19.71207,19.71207,0,0,1-5.58879,5.52786,36.04939,36.04939,0,0,1-6.95378,3.65887,63.069,63.069,0,0,1-7.44756,2.47757c-1.26651.32965-2.55175.59182-3.82629.89056-1.29761.19644-2.583.47074-3.895.57934l-1.96711.16632L9.25316,23.531A17.8176,17.8176,0,0,1,5.318,22.96759,8.98257,8.98257,0,0,1,1.7899,21.07934,5.60618,5.60618,0,0,1,.00083,17.51222a.24605.24605,0,0,1,.22723-.26417.24732.24732,0,0,1,.26694.219Z" fill="#fff"/><path d="M57.39339,17.24611a37.15768,37.15768,0,0,1-3.61366,8.83666,23.57534,23.57534,0,0,1-6.23683,7.275,9.36761,9.36761,0,0,1-4.52644,1.86871,8.50967,8.50967,0,0,1-4.82881-.84972,6.3816,6.3816,0,0,1-3.26015-3.59106,4.741,4.741,0,0,1-.22949-1.22561,9.35534,9.35534,0,0,1,.09474-1.24252c.13585-.39037.25175-.79107.40968-1.1699l.62632-1.06a.24949.24949,0,0,1,.33892-.088.24315.24315,0,0,1,.09086.33177l-.023.04012-.566.98809c-.13787.3486-.23522.71163-.358,1.065a9.41041,9.41041,0,0,0-.06821,1.10822,4.196,4.196,0,0,0,.21954,1.08386,5.80116,5.80116,0,0,0,3.00721,3.208,7.84722,7.84722,0,0,0,4.46326.72487A8.74748,8.74748,0,0,0,47.096,32.76632a22.84579,22.84579,0,0,0,6.03418-7.04819,36.48491,36.48491,0,0,0,3.53529-8.63823l.00506-.01925a.37385.37385,0,0,1,.45529-.26431.3685.3685,0,0,1,.26757.44973Z" fill="#fff"/><path d="M71.13412,5.37063,65.39429,14.9174c-.2238.38379-.51268.82688-.683,1.162a1.65175,1.65175,0,0,0-.09032,1.11123,1.4926,1.4926,0,0,0,.24085.5034,5.81444,5.81444,0,0,0,.41571.41439,1.96756,1.96756,0,0,0,1.09852.36192,4.79486,4.79486,0,0,0,2.44814-.75729A12.291,12.291,0,0,0,71.005,16.11975a.375.375,0,0,1,.62923.31354,3.20632,3.20632,0,0,0,.04987,1.41925c.08559.16352.10286.17454.28817.16776a1.86139,1.86139,0,0,0,.62539-.24249,13.4689,13.4689,0,0,0,2.45859-2.04029.37776.37776,0,0,1,.5296.00241.36867.36867,0,0,1,.09806.347,2.88356,2.88356,0,0,0-.10741,1.066c.03733.14033.07438.18147.13651.2078a.68574.68574,0,0,0,.39346-.00788,7.62353,7.62353,0,0,0,2.0969-1.07794.37837.37837,0,0,1,.52029.10526.36593.36593,0,0,1,.05822.25771l-.00146.00976a3.78575,3.78575,0,0,0,.35712,2.43716,2.01211,2.01211,0,0,0,2.04.90461,4.86265,4.86265,0,0,0,2.27721-1.18005,14.21882,14.21882,0,0,0,1.88553-1.957,27.91415,27.91415,0,0,0,2.96911-4.62119,13.239,13.239,0,0,0,1.02971-2.47739c.02106-.084.02885-.20738.02928-.1912-.00329-.04163.01534.097.08572.12759a.63512.63512,0,0,0,.15262.06551.26656.26656,0,0,0,.11412-.005c.02191-.00589.01059-.00086.01746-.00242.039-.01752-.01714.01431-.04127.03239a4.25524,4.25524,0,0,0-.46032.43738c-.3065.32557-.5966.6803-.87681,1.04042a23.1494,23.1494,0,0,0-4.53768,9.86012,11.40265,11.40265,0,0,0,.30558,5.32847,10.03357,10.03357,0,0,0,2.94936,4.42614c2.73291,2.42475,6.36225,3.66625,9.95379,4.49135,1.807.41619,3.66745.653,5.522.92923l5.56057.81988,11.12235,1.64009a54.77668,54.77668,0,0,0,5.552.67815,11.4147,11.4147,0,0,0,2.72741-.19867,4.22342,4.22342,0,0,0,1.23387-.45429,1.53241,1.53241,0,0,0,.74974-.84706l.01165-.05668a.24715.24715,0,0,1,.29144-.19077.24441.24441,0,0,1,.1934.28652,1.92274,1.92274,0,0,1-.976,1.24348,4.73455,4.73455,0,0,1-1.38092.53425,11.94152,11.94152,0,0,1-2.86448.2503,49.37189,49.37189,0,0,1-5.61469-.63122l-11.14773-1.57643-5.57447-.78837c-1.8554-.26436-3.72222-.48918-5.57095-.91861-3.65731-.84481-7.38859-2.0982-10.29081-4.66447a10.7747,10.7747,0,0,1-3.15964-4.7497,12.12961,12.12961,0,0,1-.33124-5.66766,23.8555,23.8555,0,0,1,4.68217-10.19254c.29126-.37407.59078-.74121.92285-1.09431a4.84394,4.84394,0,0,1,.555-.52219.99255.99255,0,0,1,.259-.1458.33768.33768,0,0,1,.058-.018.51186.51186,0,0,1,.158-.00345.33323.33323,0,0,1,.22075.10373.512.512,0,0,1,.159.2802,1.28955,1.28955,0,0,1-.02943.49685,13.64083,13.64083,0,0,1-1.09391,2.6574,28.6318,28.6318,0,0,1-3.052,4.74854,14.94111,14.94111,0,0,1-1.98853,2.06131,5.56555,5.56555,0,0,1-2.65193,1.3457,2.76771,2.76771,0,0,1-2.7846-1.25207,4.47326,4.47326,0,0,1-.45309-2.95486l.57692.37264c-.35681.23368-.71557.46525-1.09961.67158a4.98106,4.98106,0,0,1-1.25534.51621,1.38313,1.38313,0,0,1-.842-.03139.99741.99741,0,0,1-.58141-.74169,3.45821,3.45821,0,0,1,.11465-1.39237l.62756.34933a14.01592,14.01592,0,0,1-2.62395,2.16445,2.51917,2.51917,0,0,1-.91761.33308c-.10079.0025-.203.00088-.30334-.00469a1.96025,1.96025,0,0,1-.32326-.11258,1.71412,1.71412,0,0,1-.25857-.22006,1.77772,1.77772,0,0,1-.15416-.25559,3.69,3.69,0,0,1-.11248-1.8232l.6291.31348a12.99051,12.99051,0,0,1-2.32759,1.70162,5.49576,5.49576,0,0,1-2.8502.85389,2.58638,2.58638,0,0,1-2.44518-1.82536,2.38069,2.38069,0,0,1,.1288-1.602c.25156-.4904.48176-.82124.72368-1.2397l5.73983-9.54677a.37613.37613,0,0,1,.51192-.12883A.36648.36648,0,0,1,71.13412,5.37063Z" fill="#fff"/><line x1="49.42919" y1="14.5078" x2="52.58523" y2="13.86019" fill="none" stroke="#fff" stroke-linecap="round" stroke-linejoin="round" stroke-width="0.75"/><path d="M106.99481,12.67459l-26.009-.82242A116.95751,116.95751,0,0,0,68.006,11.915a62.29947,62.29947,0,0,0-12.76337,1.98353l-.02082.006a.24921.24921,0,0,1-.30815-.1676.24539.24539,0,0,1,.1669-.30358A62.70638,62.70638,0,0,1,67.959,11.27454a102.72911,102.72911,0,0,1,13.03619-.1603l26.03149.823a.369.369,0,1,1-.02389.73757Z" fill="#fff"/><line x1="57.67353" y1="11.0107" x2="57.99557" y2="11.72308" fill="none" stroke="#fff" stroke-linecap="round" stroke-linejoin="round" stroke-width="0.75"/></svg>