<svg id="Layer_1" data-name="Layer 1" xmlns="http://www.w3.org/2000/svg" width="306" height="60" viewBox="0 0 306 60"><defs><style>.cls-1{fill:#212529;}</style></defs><title>mfta-logo</title><path class="cls-1" d="M124.96484,19.65186h1.94629l.16407,1.373h.082a4.25639,4.25639,0,0,1,3.07422-1.61865,2.73706,2.73706,0,0,1,2.7871,1.80322,4.56891,4.56891,0,0,1,3.23731-1.80322c2.13184,0,3.11523,1.45508,3.11523,3.99609v6.31153h-2.377v-6.0044c0-1.65967-.49219-2.27441-1.53711-2.27441a3.12838,3.12838,0,0,0-2.11133,1.25v7.02881h-2.35644v-6.0044c0-1.65967-.49121-2.27441-1.55762-2.27441a3.1683,3.1683,0,0,0-2.11035,1.25v7.02881h-2.35645Z"/><path class="cls-1" d="M141.21875,27.00879c0-2.15186,1.7832-3.27881,5.92285-3.72949-.041-1.06592-.47168-1.96729-1.84472-1.96729a5.737,5.737,0,0,0-2.82813.9834l-.86035-1.57764a7.87,7.87,0,0,1,4.13965-1.31152c2.5,0,3.75,1.53662,3.75,4.34424v5.96338h-1.94727l-.16308-1.10645h-.082A4.90074,4.90074,0,0,1,144.19043,29.96,2.8131,2.8131,0,0,1,141.21875,27.00879Zm5.92285,0V24.75488c-2.74609.34815-3.64746,1.06543-3.64746,2.06934,0,.90185.61426,1.291,1.4541,1.291A3.19974,3.19974,0,0,0,147.1416,27.00879Z"/><path class="cls-1" d="M152.13965,26.312V21.5166h-1.43457V19.75439l1.55664-.10253.28711-2.74561h1.96777v2.74561h2.56153V21.5166H154.5166V26.312c0,1.18848.4502,1.76221,1.41406,1.76221a2.886,2.886,0,0,0,1.04493-.2251l.41015,1.7417a6.42525,6.42525,0,0,1-2.0498.36914C153,29.96,152.13965,28.48437,152.13965,26.312Z"/><path class="cls-1" d="M158.10547,24.69336c0-3.27881,2.27539-5.28711,4.63183-5.28711,2.72559,0,4.16016,1.96729,4.16016,4.77441a5.48935,5.48935,0,0,1-.10254,1.148h-6.39355a2.87913,2.87913,0,0,0,2.9707,2.80713,4.20626,4.20626,0,0,0,2.33691-.7373l.79883,1.4751A6.34755,6.34755,0,0,1,163.06543,29.96C160.27832,29.96,158.10547,28.01318,158.10547,24.69336Zm6.74219-.96338c0-1.55713-.67578-2.5-2.04883-2.5a2.5265,2.5265,0,0,0-2.418,2.5Z"/><path class="cls-1" d="M168.75586,19.65186h1.94629l.16406,1.7832h.082a3.41943,3.41943,0,0,1,2.84863-2.02881,2.56157,2.56157,0,0,1,1.14747.20459l-.41016,2.04932a3.281,3.281,0,0,0-1.04492-.16358c-.79883,0-1.76172.55322-2.377,2.06934v6.148h-2.35644Z"/><path class="cls-1" d="M176.5752,19.65186h2.35644v10.062H176.5752Z"/><circle class="cls-1" cx="177.75342" cy="16.68359" r="1.4"/><path class="cls-1" d="M180.8291,27.00879c0-2.15186,1.7832-3.27881,5.92285-3.72949-.041-1.06592-.47168-1.96729-1.84472-1.96729a5.737,5.737,0,0,0-2.82813.9834l-.86035-1.57764a7.87006,7.87006,0,0,1,4.13965-1.31152c2.5,0,3.75,1.53662,3.75,4.34424v5.96338h-1.94727l-.16308-1.10645h-.082A4.90078,4.90078,0,0,1,183.80078,29.96,2.81311,2.81311,0,0,1,180.8291,27.00879Zm5.92285,0V24.75488c-2.74609.34815-3.64746,1.06543-3.64746,2.06934,0,.90185.61426,1.291,1.4541,1.291A3.19972,3.19972,0,0,0,186.752,27.00879Z"/><path class="cls-1" d="M191.13953,27.13184V15.24609H193.496V27.25488c0,.57373.2666.77881.5127.77881a1.40269,1.40269,0,0,0,.36816-.041l.30762,1.7622a3.21442,3.21442,0,0,1-1.25.20508C191.75378,29.96,191.13953,28.87354,191.13953,27.13184Z"/><path class="cls-1" d="M196.10205,28.56641l1.10645-1.51661a4.475,4.475,0,0,0,2.78711,1.127c1.08593,0,1.59765-.51221,1.59765-1.209,0-.84033-1.08594-1.209-2.15137-1.61865-1.332-.49219-2.82812-1.25-2.82812-2.93066,0-1.76221,1.41406-3.01221,3.668-3.01221a5.43286,5.43286,0,0,1,3.34082,1.209l-1.08594,1.43457a3.74569,3.74569,0,0,0-2.21387-.86084c-1.0039,0-1.47461.4712-1.47461,1.10645,0,.79932,1.00391,1.10693,2.08985,1.49609,1.373.51221,2.88965,1.168,2.88965,3.05323,0,1.72168-1.37305,3.11523-3.91407,3.11523A6.3709,6.3709,0,0,1,196.10205,28.56641Z"/><path class="cls-1" d="M246.36133,15.24609h2.35644v3.7295l-.082,1.94677a4.6145,4.6145,0,0,1,3.21778-1.51611c2.15136,0,3.09375,1.45508,3.09375,3.99609v6.31153h-2.35645v-6.0044c0-1.65967-.47168-2.27441-1.57812-2.27441a3.1873,3.1873,0,0,0-2.29493,1.25v7.02881h-2.35644Z"/><path class="cls-1" d="M256.93848,24.69336c0-3.27881,2.27539-5.28711,4.63183-5.28711,2.72559,0,4.16016,1.96729,4.16016,4.77441a5.49,5.49,0,0,1-.10254,1.148h-6.39355a2.87912,2.87912,0,0,0,2.9707,2.80713,4.20626,4.20626,0,0,0,2.33691-.7373l.79883,1.4751A6.34755,6.34755,0,0,1,261.89844,29.96C259.11133,29.96,256.93848,28.01318,256.93848,24.69336Zm6.74218-.96338c0-1.55713-.67578-2.5-2.04882-2.5a2.5265,2.5265,0,0,0-2.418,2.5Z"/><path class="cls-1" d="M271.33008,27.00879c0-2.15186,1.7832-3.27881,5.92285-3.72949-.041-1.06592-.47168-1.96729-1.84473-1.96729a5.73693,5.73693,0,0,0-2.82812.9834l-.86035-1.57764a7.87,7.87,0,0,1,4.13964-1.31152c2.5,0,3.75,1.53662,3.75,4.34424v5.96338h-1.94726l-.16309-1.10645h-.082A4.90076,4.90076,0,0,1,274.30176,29.96,2.8131,2.8131,0,0,1,271.33008,27.00879Zm5.92285,0V24.75488c-2.74609.34815-3.64746,1.06543-3.64746,2.06934,0,.90185.61426,1.291,1.4541,1.291A3.19974,3.19974,0,0,0,277.25293,27.00879Z"/><path class="cls-1" d="M281.82617,19.65186h1.94629l.16406,1.7832h.082a3.41943,3.41943,0,0,1,2.84864-2.02881,2.56155,2.56155,0,0,1,1.14746.20459l-.41016,2.04932a3.281,3.281,0,0,0-1.04492-.16358c-.79883,0-1.76172.55322-2.377,2.06934v6.148h-2.35645Z"/><path class="cls-1" d="M290.79941,26.312V21.5166h-1.43457V19.75439l1.55762-.10253.28613-2.74561h1.96778v2.74561h2.56152V21.5166h-2.56152V26.312c0,1.18848.45019,1.76221,1.41406,1.76221a2.886,2.886,0,0,0,1.04492-.2251l.41016,1.7417a6.42526,6.42526,0,0,1-2.04981.36914C291.65977,29.96,290.79941,28.48437,290.79941,26.312Z"/><path class="cls-1" d="M297.24316,28.56641l1.10645-1.51661a4.47506,4.47506,0,0,0,2.78711,1.127c1.08594,0,1.59766-.51221,1.59766-1.209,0-.84033-1.08594-1.209-2.15137-1.61865-1.332-.49219-2.82813-1.25-2.82813-2.93066,0-1.76221,1.41407-3.01221,3.668-3.01221a5.43282,5.43282,0,0,1,3.34082,1.209l-1.08594,1.43457a3.74569,3.74569,0,0,0-2.21386-.86084c-1.00391,0-1.47461.4712-1.47461,1.10645,0,.79932,1.0039,1.10693,2.08984,1.49609,1.37305.51221,2.88965,1.168,2.88965,3.05323,0,1.72168-1.373,3.11523-3.91406,3.11523A6.37091,6.37091,0,0,1,297.24316,28.56641Z"/><path class="cls-1" d="M209.962,21.5166H208.6095V19.75439l1.35254-.10253V18.60693c0-2.09033.96289-3.60693,3.33984-3.60693a5.09508,5.09508,0,0,1,1.84473.34863l-.45118,1.76221a2.77528,2.77528,0,0,0-1.10644-.24561c-.82031,0-1.27051.53272-1.27051,1.70069v1.08594h1.9668V21.5166h-1.9668v8.19727H209.962Z"/><path class="cls-1" d="M215.39368,24.69336c0-3.36084,2.27539-5.28711,4.77539-5.28711,2.52051,0,4.79492,1.92627,4.79492,5.28711,0,3.34033-2.27441,5.2666-4.79492,5.2666C217.66907,29.96,215.39368,28.03369,215.39368,24.69336Zm7.15234,0c0-2.02881-.90137-3.36084-2.37695-3.36084s-2.35645,1.332-2.35645,3.36084c0,2.0083.88086,3.34033,2.35645,3.34033S222.546,26.70166,222.546,24.69336Z"/><path class="cls-1" d="M227.20227,19.65186h1.94629l.16406,1.7832h.082a3.41943,3.41943,0,0,1,2.84864-2.02881,2.56155,2.56155,0,0,1,1.14746.20459l-.41016,2.04932a3.281,3.281,0,0,0-1.04492-.16358c-.79883,0-1.76172.55322-2.37695,2.06934v6.148h-2.35645Z"/><path class="cls-1" d="M239.04407,26.312V21.5166H237.6095V19.75439l1.55761-.10253.28614-2.74561H241.421v2.74561h2.56152V21.5166H241.421V26.312c0,1.18848.4502,1.76221,1.41406,1.76221a2.88594,2.88594,0,0,0,1.04492-.2251l.41016,1.7417a6.42525,6.42525,0,0,1-2.0498.36914C239.90442,29.96,239.04407,28.48437,239.04407,26.312Z"/><path class="cls-1" d="M124.96484,35.06787h.77344l2.13379,3.70947.63965,1.22364h.03613c-.03613-.59375-.08984-1.25977-.08984-1.88086V35.06787h.71094v5.90576h-.77442L126.252,37.25586,125.6123,36.04h-.03515c.04492.59473.09863,1.22461.09863,1.8457v3.08789h-.71094Z"/><path class="cls-1" d="M132.55176,38.68652l-1.77344-3.61865h.80078l.76563,1.66553c.18847.43164.36914.84668.56738,1.28711h.03516c.208-.44043.415-.85547.59472-1.28711l.75586-1.66553h.7832l-1.77343,3.61865v2.28711h-.75586Z"/><path class="cls-1" d="M136.22363,38.02051c0-1.89942,1.11621-3.06055,2.62012-3.06055a2.15232,2.15232,0,0,1,1.62012.729l-.4043.48584a1.61645,1.61645,0,0,0-1.207-.55761c-1.11621,0-1.85449.918-1.85449,2.38574,0,1.48535.71093,2.42187,1.82812,2.42187a1.78018,1.78018,0,0,0,1.36817-.667l.41406.46875a2.28461,2.28461,0,0,1-1.80957.85547C137.32227,41.082,136.22363,39.94727,136.22363,38.02051Z"/><path class="cls-1" d="M145.125,35.06787h1.47656c1.81836,0,2.79,1.05322,2.79,2.92627,0,1.88086-.97168,2.97949-2.75488,2.97949H145.125Zm1.42187,5.29346c1.37793,0,2.07129-.873,2.07129-2.36719,0-1.48535-.69336-2.314-2.07129-2.314h-.6748v4.68115Z"/><path class="cls-1" d="M151.46973,35.06787h3.40234v.63037H152.2168v1.85449H154.458v.63868H152.2168V40.334h2.74609v.63965h-3.49316Z"/><path class="cls-1" d="M157.02344,35.06787H158.707c1.32324,0,2.21387.44092,2.21387,1.73779,0,1.24219-.88184,1.82715-2.17871,1.82715h-.97168v2.34082h-.74707Zm1.6289,2.95264c1.02637,0,1.52149-.37793,1.52149-1.21485,0-.85546-.52149-1.13476-1.55762-1.13476h-.8457v2.34961Z"/><path class="cls-1" d="M163.69141,35.06787h.84668l1.998,5.90576h-.80078l-.55859-1.80078h-2.15137l-.56738,1.80078h-.76465Zm-.47657,3.50244h1.77344l-.2793-.90039c-.21582-.65722-.40527-1.30566-.59375-1.98974h-.03613c-.18066.68408-.36914,1.33252-.58594,1.98974Z"/><path class="cls-1" d="M168.18262,35.06787h1.8457c1.20605,0,2.07031.43213,2.07031,1.65674a1.61183,1.61183,0,0,1-1.333,1.67383l1.50391,2.57519h-.84668L170.001,38.47949h-1.07129v2.49414h-.74707Zm1.7373,2.80029c.918,0,1.43164-.3789,1.43164-1.14355,0-.77441-.51367-1.05371-1.43164-1.05371h-.99023v2.19726Z"/><path class="cls-1" d="M175.21094,35.69824h-1.78223v-.63037H177.75v.63037h-1.78223v5.27539h-.75683Z"/><path class="cls-1" d="M179.62109,35.06787h.90039l1.13379,3.15088c.14453.40527.2793.82813.42285,1.2334h.03614c.14453-.40527.26172-.82813.40527-1.2334l1.11621-3.15088h.90918v5.90576h-.70215v-3.25c0-.52246.06348-1.22461.09961-1.74658h-.03613l-.46875,1.34131-1.11621,3.06152h-.49512L180.71,37.31836l-.46777-1.34131h-.03614c.03614.522.08985,1.22412.08985,1.74658v3.25h-.67481Z"/><path class="cls-1" d="M186.97461,35.06787H190.377v.63037h-2.65527v1.85449h2.24121v.63868h-2.24121V40.334h2.74609v.63965h-3.49316Z"/><path class="cls-1" d="M192.52734,35.06787h.77344l2.13379,3.70947.63965,1.22364h.03613c-.03613-.59375-.08984-1.25977-.08984-1.88086V35.06787h.71094v5.90576H195.957l-2.14258-3.71777L193.1748,36.04h-.03515c.04492.59473.09863,1.22461.09863,1.8457v3.08789h-.71094Z"/><path class="cls-1" d="M200.38477,35.69824h-1.78223v-.63037h4.32129v.63037H201.1416v5.27539h-.75683Z"/><path class="cls-1" d="M207.24219,37.99414c0-1.89062,1.03613-3.03418,2.52148-3.03418s2.5293,1.15234,2.5293,3.03418c0,1.89941-1.04395,3.08789-2.5293,3.08789S207.24219,39.89355,207.24219,37.99414Zm4.26758,0c0-1.46777-.69336-2.377-1.7461-2.377-1.05371,0-1.74707.90918-1.74707,2.377,0,1.47559.69336,2.43066,1.74707,2.43066C210.81641,40.4248,211.50977,39.46973,211.50977,37.99414Z"/><path class="cls-1" d="M214.37012,35.06787h3.40234v.63037h-2.65527v1.998h2.251v.63086h-2.251v2.64648h-.74707Z"/><path class="cls-1" d="M222.07422,38.02051c0-1.89942,1.11719-3.06055,2.62012-3.06055a2.15228,2.15228,0,0,1,1.62011.729l-.40429.48584a1.61807,1.61807,0,0,0-1.207-.55761c-1.11621,0-1.85449.918-1.85449,2.38574,0,1.48535.71094,2.42187,1.82813,2.42187a1.78017,1.78017,0,0,0,1.36816-.667l.41406.46875a2.2846,2.2846,0,0,1-1.80957.85547C223.17285,41.082,222.07422,39.94727,222.07422,38.02051Z"/><path class="cls-1" d="M228.21191,38.53418V35.06787h.74707v3.48389c0,1.42285.60352,1.873,1.37793,1.873.78321,0,1.39551-.45019,1.39551-1.873V35.06787h.71973v3.46631c0,1.89941-.90918,2.54785-2.11524,2.54785C229.12988,41.082,228.21191,40.43359,228.21191,38.53418Z"/><path class="cls-1" d="M234.85352,35.06787h.74707V40.334h2.584v.63965h-3.33105Z"/><path class="cls-1" d="M240.18262,35.69824h-1.78223v-.63037h4.32129v.63037h-1.78223v5.27539h-.75683Z"/><path class="cls-1" d="M244.56543,38.53418V35.06787h.74707v3.48389c0,1.42285.60352,1.873,1.37793,1.873.7832,0,1.39551-.45019,1.39551-1.873V35.06787h.71972v3.46631c0,1.89941-.90918,2.54785-2.11523,2.54785C245.4834,41.082,244.56543,40.43359,244.56543,38.53418Z"/><path class="cls-1" d="M251.208,35.06787h1.8457c1.20606,0,2.07031.43213,2.07031,1.65674a1.61183,1.61183,0,0,1-1.333,1.67383l1.5039,2.57519h-.84668l-1.42187-2.49414h-1.07129v2.49414H251.208Zm1.7373,2.80029c.918,0,1.43164-.3789,1.43164-1.14355,0-.77441-.51367-1.05371-1.43164-1.05371h-.99023v2.19726Z"/><path class="cls-1" d="M258.31738,35.06787h.84668l1.998,5.90576h-.80078l-.5586-1.80078h-2.15136l-.56739,1.80078h-.76464Zm-.47656,3.50244h1.77344l-.2793-.90039c-.21582-.65722-.40527-1.30566-.59473-1.98974h-.03515c-.18067.68408-.36914,1.33252-.58594,1.98974Z"/><path class="cls-1" d="M262.80859,35.06787h.74707V40.334h2.584v.63965h-3.33106Z"/><path class="cls-1" d="M271.99707,35.06787h.84668l1.998,5.90576H274.041l-.5586-1.80078h-2.15137l-.56738,1.80078H269.999Zm-.47656,3.50244H273.294l-.2793-.90039c-.21582-.65722-.40528-1.30566-.59473-1.98974h-.03515c-.18067.68408-.36915,1.33252-.58594,1.98974Z"/><path class="cls-1" d="M276.4873,35.06787h3.40235v.63037h-2.65528v1.998h2.251v.63086h-2.251v2.64648h-.74707Z"/><path class="cls-1" d="M281.74414,35.06787h3.40234v.63037h-2.65527v1.998h2.251v.63086h-2.251v2.64648h-.74707Z"/><path class="cls-1" d="M287.88184,35.06787h.84668l1.998,5.90576h-.80078l-.55859-1.80078h-2.15137l-.56738,1.80078h-.76465Zm-.47657,3.50244h1.77344l-.2793-.90039c-.21582-.65722-.40527-1.30566-.59472-1.98974h-.03516c-.18066.68408-.36914,1.33252-.58594,1.98974Z"/><path class="cls-1" d="M292.37305,35.06787h.74707v5.90576h-.74707Z"/><path class="cls-1" d="M295.5498,35.06787h1.84571c1.20605,0,2.07031.43213,2.07031,1.65674a1.61183,1.61183,0,0,1-1.333,1.67383l1.50391,2.57519H298.79l-1.42188-2.49414h-1.07128v2.49414h-.74708Zm1.73731,2.80029c.918,0,1.43164-.3789,1.43164-1.14355,0-.77441-.51367-1.05371-1.43164-1.05371h-.99023v2.19726Z"/><path class="cls-1" d="M300.92188,40.208l.45019-.52149a2.31613,2.31613,0,0,0,1.62988.73828c.77442,0,1.2334-.38769,1.2334-.96386,0-.60254-.42383-.792-.98144-1.044l-.84668-.36914A1.66054,1.66054,0,0,1,301.21,36.52637,1.67756,1.67756,0,0,1,303.06445,34.96a2.453,2.453,0,0,1,1.74707.729l-.40527.48584a1.88431,1.88431,0,0,0-1.3418-.55761c-.65722,0-1.09765.333-1.09765.86426,0,.56738.51269.7832.98047.98144l.83789.35938A1.64515,1.64515,0,0,1,305,39.39844a1.78377,1.78377,0,0,1-2.00781,1.68359A2.86458,2.86458,0,0,1,300.92188,40.208Z"/><path class="cls-1" d="M81.256,20.26993a9.50176,9.50176,0,0,0,13.24971-2.0931l-7.6741-5.56112Z"/><path class="cls-1" d="M70.10482,35.57833a14.22635,14.22635,0,0,1,2.34367,2.14809l8.79223-12.07a14.2502,14.2502,0,0,1-2.77246-1.55932Z"/><path class="cls-1" d="M67.31705,39.40545l-5.57561,7.65422L69.4156,52.6208A9.44523,9.44523,0,0,0,67.31705,39.40545Z"/><path class="cls-1" d="M104.2248,3.1537h-2.16475V8.13606h4.74288V5.72513A2.57478,2.57478,0,0,0,104.2248,3.1537Z"/><path class="cls-1" d="M104.43146.00021H94.94571A5.59192,5.59192,0,0,0,89.41233,5.771v4.81672L84.85309,7.28315,89.92788.31667,88.6287.13189A12.64028,12.64028,0,0,0,76.60012,5.20046a12.50509,12.50509,0,0,0-2.26026,9.38876,12.64085,12.64085,0,0,0,.94356,3.14925L63.05437,34.52715a12.785,12.785,0,0,0-6.99952,1.27442L41.944,6.94514l3.48964-1.6977L44.8246,4.479A11.88678,11.88678,0,0,0,32.742.33283l-.95416.231,1.7006,3.47712L30.64612,5.42374l-.44679-.91411-.12662.05817.12657-.05833a2.36361,2.36361,0,0,0,1.38478-2.14411V2.36525A2.371,2.371,0,0,0,29.2126,0L2.33631.00021A2.36529,2.36529,0,1,0,4.39809,3.511L6.28868,7.28231V52.7179L4.39809,56.48919A2.36476,2.36476,0,1,0,2.33631,60H29.2126a2.36529,2.36529,0,1,0-2.06179-3.51081L25.26023,52.7179V15.06163l2.47453-1.20384L46.668,52.5769l7.95341,4.63665,5.02313-2.44383.65727-4.85512,3.41825,2.47752-5.07484,6.96649,1.29919.18478a12.90154,12.90154,0,0,0,1.80639.1278,12.58,12.58,0,0,0,11.539-17.734L85.51693,25.15131a11.84792,11.84792,0,0,0,3.8954-.20659V47.43985L99.68859,60l10.27625-12.56015V5.771A5.59192,5.59192,0,0,0,104.43146.00021ZM2.33631,3.1537a.78843.78843,0,1,1,.79045-.78845A.7918.7918,0,0,1,2.33631,3.1537Zm0,55.26945a.78843.78843,0,1,1,.78847-.78845A.789.789,0,0,1,2.33631,58.42315ZM29.2126,56.8463a.78843.78843,0,1,1-.79045.7884A.79.79,0,0,1,29.2126,56.8463Zm-8.69525,1.57685H5.19636l.79051-1.57685H20.51735Zm0-3.15371h-13.74l.79051-1.57685H20.51735ZM7.86964,52.11574V7.88447H9.45059V52.11574Zm3.16191,0V7.88447h1.581V52.11574Zm3.16192,0V7.88447h3.16192V52.11574Zm6.32388,0h-1.581V7.88447h1.581Zm0-45.80812H7.56783L6.77732,4.73077h13.74Zm0-3.15371H5.98687L5.19636,1.57706h15.321Zm3.16192,48.96183h-1.581V7.88447h1.581ZM90.99329,11.29H93.66l-1.133,1.5553-1.53375-1.11166ZM54.22275,35.65079l-6.335,5.03143L46.865,38.59079l6.33516-5.03106Zm-2.97256,4.37669a12.56967,12.56967,0,0,0-1.76229,3.927l-.89016-1.82033Zm1.24007-7.91962L46.1551,37.13892l-1.02261-2.09117,6.33516-5.03106Zm-1.7326-3.543L44.4225,33.59588l-1.02282-2.09164,6.33517-5.03106Zm-1.73275-3.54356-6.33517,5.03111-1.02244-2.0908,6.335-5.03143Zm-1.73255-3.543-6.335,5.03137-1.02282-2.09158,6.335-5.03143Zm-1.7328-3.54351-6.335,5.03137L38.20194,20.875l6.335-5.03138Zm-1.73255-3.543L37.492,19.4231l-1.02271-2.09143,6.33517-5.03106Zm-1.73254-3.543L35.7593,15.8798l-1.02255-2.09117,6.33511-5.03106ZM29.2126,1.57685a.78843.78843,0,1,1-.79045.7884A.7918.7918,0,0,1,29.2126,1.57685ZM25.36136,13.258a10.25666,10.25666,0,0,1,3.0461-8.81517l1.50994,3.089,5.68465-2.76568L34.09138,1.67793A10.3173,10.3173,0,0,1,42.931,4.71Zm5.57419,3.54937,1.26729-1.0064,1.02255,2.09116-1.26729,1.0064Zm1.73254,3.543,1.2673-1.0064,1.02276,2.09154-1.2673,1.0065ZM34.40085,23.894l1.26729-1.00656,1.02255,2.09117L35.4234,25.98512Zm1.73254,3.543,1.2673-1.0065,1.02281,2.09159-1.26735,1.00655Zm1.73276,3.54351,1.26734-1.0065,1.02235,2.0907-1.2674,1.00645Zm1.73228,3.54257,1.26735-1.0065,1.02281,2.09158-1.2674,1.00651Zm1.73275,3.54351,1.2674-1.0065,1.02261,2.09117-1.26745,1.0065Zm1.73255,3.54309,1.2674-1.00656,1.02276,2.09154-1.2674,1.00661Zm1.73275,3.54351,1.2674-1.00661,1.02261,2.09112L45.819,47.24435ZM46.529,48.69627l1.26745-1.00666L48.819,49.78078l-1.26745,1.00666Zm2.13931,3.22,1.08235-.8596a12.73124,12.73124,0,0,0,.64316,1.56571l.20635.41988Zm9.52341,1.80636-3.50233,1.70309-3.44269-2.00663L56.04609,46.83l2.80351,2.032Zm12.50295-.17479A11.0798,11.0798,0,0,1,61.52235,58.092l4.4055-6.04949L55.69561,44.628,51.2901,50.67747a10.988,10.988,0,0,1,1.49756-10.10559A11.10038,11.10038,0,0,1,68.246,38.12962,11.02035,11.02035,0,0,1,70.6947,53.54783Zm1.77655-13.16978A12.61229,12.61229,0,0,0,64.791,34.82467l11.311-15.52734a12.63178,12.63178,0,0,0,7.67857,5.55573Zm7.85586-18.83234A11.03276,11.03276,0,0,1,86.82387,1.58093q.11346,0,.227.0023l-4.40555,6.0495,10.23225,7.41462,4.40555-6.04876a10.98672,10.98672,0,0,1-1.49761,10.1048A11.09865,11.09865,0,0,1,80.32711,21.54571ZM102.537,54.00722H96.84013L91.1518,47.08,94.94571,43.296l4.74288,4.73055,4.74287-4.73055L108.22538,47.08Zm5.84684-8.9989-3.95243-3.94216-4.74287,4.73061-4.74288-4.73061-3.95242,3.94221V24.51573a12.54113,12.54113,0,0,0,7.45386-6.9183h9.93674Zm0-28.98779H99.00724a12.53851,12.53851,0,0,0,.33768-1.57686h9.039Zm0-3.15371H99.47752A12.54784,12.54784,0,0,0,99.40524,11.29h8.97865Zm0-3.1537H99.13181a12.673,12.673,0,0,0-.95248-2.65943l-.57744-1.17491L94.80871,9.71312H90.99329V5.771a4.01324,4.01324,0,0,1,3.95242-4.194h9.48575a4.01324,4.01324,0,0,1,3.95243,4.194Z"/><polygon class="cls-1" points="106.803 40.998 106.803 19.223 102.06 19.174 102.06 40.998 104.431 38.633 106.803 40.998"/></svg>