<svg id="Layer_1" data-name="Layer 1" xmlns="http://www.w3.org/2000/svg" width="130" height="30" viewBox="0 0 130 30"><title>nyc-cultural-affairs</title><g opacity="0.6"><path d="M48.95915,7.39179,44.73639,11.6133V8.77794L43.35024,7.39179H37.74261L36.35646,8.77794V11.6133l-2.77231,2.7723-2.7723-2.7723V8.77794L29.4257,7.39179H23.755l-1.3874,1.38615L20.98142,7.39179H15.37375L13.98764,8.77794V14.3856L6.99382,7.39179H1.38615L0,8.77794V28.43629l1.38615,1.38614H6.99382L8.38,28.43629V22.82862l6.93073,6.99381h5.60891l1.38615-1.38614V17.221l6.99382,6.99381v4.22152l1.38616,1.38614h5.60763l1.38615-1.38614V24.21477L44.73639,17.221v8.38l4.22276,4.22151H62.94679l4.22152-4.22151V21.37941l-1.38615-1.38615H58.78834v1.38615H53.18067V15.77175h5.60767v1.38614h6.99382l1.38615-1.38614V11.55024L62.94679,7.32872Zm17.26444,0a.91353.91353,0,0,1,.94472.88164.94472.94472,0,0,1-1.88944,0,1.006,1.006,0,0,1,.94472-.88164m0,1.63716A.69773.69773,0,0,0,66.916,8.3365a.661.661,0,0,0-.6269-.6937h-.06555a.69308.69308,0,1,0,0,1.38615m-.31532-1.26h.37838c.25226,0,.37838.06306.37838.31531a.23063.23063,0,0,1-.20774.25226.26915.26915,0,0,1-.04453,0l.25227.44144h-.18917l-.25227-.44144h-.12611v.44144h-.18921Zm.18921.44143h.18917c.12611,0,.18921,0,.18921-.12612s-.12616-.12612-.18921-.12612h-.18917Z" fill="#00473c"/><path d="M79.44183,11.008a1.87644,1.87644,0,0,0-2.086-1.59388c-1.73981,0-2.40506,1.537-2.40506,3.07154,0,1.53576.6665,3.07277,2.40506,3.07277a1.91982,1.91982,0,0,0,2.07861-1.74721c.00494-.05441.00743-.11006.00743-.1657h2.69438c-.14343,2.666-2.09962,4.23017-4.72479,4.23017a5.093,5.093,0,0,1-5.1588-5.39,5.09565,5.09565,0,0,1,5.16129-5.39c2.23192,0,4.65057,1.42076,4.726,3.91237Z" fill="#00473c"/><path d="M90.67162,17.65881H88.27769V16.63H88.248a2.77373,2.77373,0,0,1-2.2888,1.24642c-2.159,0-2.78219-1.24642-2.78219-3.21374V10.13824h2.46317v4.36248c0,.99911.434,1.34658,1.218,1.34658.53543,0,1.34656-.34747,1.34656-1.68045V10.13824h2.46691Z" fill="#00473c"/><rect x="92.08732" y="7.31338" width="2.46317" height="10.34481" fill="#00473c"/><path d="M100.43824,11.732H98.91729v3.419c0,.59477.34747.7246.88163.7246.20279,0,.42045-.02843.63807-.02843v1.81151c-.44887.0136-.899.07172-1.34781.07172-2.10087,0-2.63755-.60837-2.63755-2.65112V11.732H95.209V10.13812h1.24517v-2.274h2.46317v2.274h1.52095Z" fill="#00473c"/><path d="M108.7424,17.65881h-2.39148V16.63h-.02841a2.77435,2.77435,0,0,1-2.29008,1.24642c-2.159,0-2.781-1.24642-2.781-3.21374V10.13824h2.46318v4.36248c0,.99911.434,1.34658,1.218,1.34658.53543,0,1.34781-.34747,1.34781-1.68045V10.13824h2.46318Z" fill="#00473c"/><path d="M110.15946,10.13848h2.39019v1.31938h.02966a2.2682,2.2682,0,0,1,2.26038-1.46405,2.6086,2.6086,0,0,1,.58.05811v2.24554a3.44406,3.44406,0,0,0-.94472-.14467,1.72969,1.72969,0,0,0-1.85109,1.60007,1.48262,1.48262,0,0,0-.0037.18177v3.72443H110.157Z" fill="#00473c"/><path d="M119.09373,16.35477c1.17348,0,1.56423-.66649,1.50736-2.2171a6.89975,6.89975,0,0,1-1.52219.40558c-.55026.13108-1.014.36231-1.014.95708C118.06494,16.10623,118.54351,16.35477,119.09373,16.35477ZM115.906,12.45723a2.31025,2.31025,0,0,1,1.17344-2.01678,4.95866,4.95866,0,0,1,2.39023-.52181c1.78185,0,3.50555.392,3.50555,2.52128v3.28917a4.36168,4.36168,0,0,0,.2906,1.92651h-2.47555a3.00377,3.00377,0,0,1-.14468-.70977,3.38974,3.38974,0,0,1-2.478.9274c-1.43313,0-2.56457-.72337-2.56457-2.274,0-2.44833,2.666-2.26037,4.37608-2.60783.42042-.0878.65166-.23247.65166-.6937,0-.56757-.68132-.78272-1.1883-.78272a1.10047,1.10047,0,0,0-1.23034.94595Z" fill="#00473c"/><rect x="124.36819" y="7.31338" width="2.46317" height="10.34481" fill="#00473c"/><path d="M75.5584,25.92687h2.34815l-1.145-3.623h-.02842Zm-.1731-6.49055h2.73891L81.99206,29.7799H79.18142l-.638-1.8548H74.93519l-.65166,1.8548H71.51616Z" fill="#00473c"/><path d="M82.76822,23.85642H81.57987V22.2613h1.18835c0-2.159.75551-2.82547,2.85389-2.82547.392,0,.79754.02968,1.1883.04328v1.73856a5.43535,5.43535,0,0,0-.66649-.04328c-.56634,0-.91257.073-.91257.75676v.33262H86.709v1.59265H85.23135v5.923H82.76822Z" fill="#00473c"/><path d="M88.13415,23.85642H86.94581V22.2613h1.18834c0-2.159.75551-2.82547,2.85389-2.82547.392,0,.79755.02968,1.1883.04328v1.73856a5.43535,5.43535,0,0,0-.66649-.04328c-.56634,0-.91257.073-.91257.75676v.33262h1.47766v1.59265H90.59728v5.923H88.13415Z" fill="#00473c"/><path d="M95.734,28.47733c1.17347,0,1.56423-.66648,1.50736-2.21709a6.90045,6.90045,0,0,1-1.52219.40558c-.55027.13107-1.014.3623-1.014.95707-.0012.60714.47857.85444,1.0288.85444m-3.18774-3.89754A2.31025,2.31025,0,0,1,93.71966,22.563a4.95869,4.95869,0,0,1,2.39023-.52181c1.78185,0,3.50555.392,3.50555,2.52128v3.28917a4.36168,4.36168,0,0,0,.29061,1.92651H97.428a3.00217,3.00217,0,0,1-.14467-.70976,3.38986,3.38986,0,0,1-2.478.92739c-1.43313,0-2.56457-.72337-2.56457-2.274,0-2.44833,2.666-2.26037,4.37608-2.60783.42042-.0878.65163-.23247.65163-.6937,0-.56757-.68132-.78272-1.18831-.78272a1.1023,1.1023,0,0,0-1.23154.94594Z" fill="#00473c"/><path d="M101.00529,22.26068h2.46318v7.5181h-2.46318Zm2.46567-.941h-2.46567V19.43644h2.46318Z" fill="#00473c"/><path d="M104.90756,22.26105h2.3902v1.31938h.02966a2.26819,2.26819,0,0,1,2.26038-1.46405,2.6041,2.6041,0,0,1,.57871.05812v2.24924a3.41764,3.41764,0,0,0-.941-.14467,1.731,1.731,0,0,0-1.85106,1.59884c-.00373.06058-.00494.12117-.00373.183v3.71825h-2.46314Z" fill="#00473c"/><path d="M112.77063,27.30312a1.00877,1.00877,0,0,0,.40555.84084,1.54589,1.54589,0,0,0,.91381.26092c.47728,0,1.15864-.2028,1.15864-.79757,0-.57993-.76788-.69246-1.20317-.79632-1.54936-.392-3.492-.43526-3.492-2.46317,0-1.81152,1.95373-2.30366,3.43385-2.30366,1.652,0,3.37574.47731,3.466,2.43349h-2.274a.70951.70951,0,0,0-.31906-.65164,1.44707,1.44707,0,0,0-.78272-.18919c-.40558,0-1.05845.04328-1.05845.56632,0,.711,1.652.84084,2.78219,1.08692a2.13369,2.13369,0,0,1,1.91291,2.02914c0,2.01678-1.91291,2.6808-3.60819,2.6808-1.78186,0-3.6082-.59354-3.67993-2.6944Z" fill="#00473c"/></g></svg>