<svg id="Layer_1" data-name="Layer 1" xmlns="http://www.w3.org/2000/svg" width="249.7819" height="30" viewBox="0 0 249.7819 30"><title>nyc-sanitation</title><g opacity="0.6"><path d="M14.06883,14.14642V8.7896c.48447-.48448.9259-.92451,1.36732-1.36733h5.74969c.39284.39283.81207.81068,1.26321,1.26182.29428-.09163.44837-.404.68575-.60939.22348-.19436.42338-.41644.64825-.64272h5.65253c.44421.44559.88285.88286,1.39508,1.39648V11.5978q1.40133,1.40342,2.70966,2.70688l2.81932-2.81933V8.83679c.46919-.46781.90784-.90646,1.40063-1.39926h5.64558c.46086.46086.90229.9009,1.38675,1.38536v2.49589c.06386.0139.10551.03332.118.02082,1.34513-1.28681,2.68745-2.575,4.077-3.90762H62.96339c1.41174,1.41313,2.81793,2.81932,4.26439,4.26576v4.01452q-.75794.75792-1.5117,1.51307c-2.2599.00138-4.51979.00138-6.84216.00138V15.82747H53.17838v5.48039h5.65945V19.91972H65.6314c.50668.508,1.00919,1.00917,1.57833,1.5797v3.934C65.798,26.84516,64.39318,28.25,62.93147,29.71029H48.95563c-1.38259-1.38675-2.76933-2.7749-4.19495-4.2033V17.19757c-1.33262,1.08136-2.23075,2.46534-3.43289,3.55364-1.20074,1.08414-2.37511,2.19743-3.52448,3.26491v4.35461c-.4456.43727-.88841.87592-1.35205,1.33261H30.80012c-.44282-.4442-.88285-.88285-1.36733-1.36732V24.28959c-1.20767-1.20907-2.43618-2.4126-3.63692-3.64387-.9842-1.00919-1.93647-2.04891-2.904-3.07336-.11106-.118-.22905-.23043-.40812-.41088v11.1912c-.47336.472-.91478.91341-1.359,1.35761H15.475c-2.33763-2.27378-4.65166-4.52535-6.96708-6.77276-.00833-.00832-.05.01389-.10688.03332V28.343c-.47337.472-.9148.91339-1.36455,1.36176H1.32707C.90646,29.273.472,28.826,0,28.34019V8.82846L1.38814,7.44032h5.665c1.09941,1.09663,2.25017,2.25016,3.40233,3.401q1.71575,1.71782,3.43565,3.43564c.05831-.043.118-.08745.17769-.13049" fill="#00473c"/><path d="M83.16588,12.29978a4.19546,4.19546,0,0,0-1.21463-1.46031A5.14716,5.14716,0,0,0,80.2008,9.9913a8.13235,8.13235,0,0,0-2.10166-.2679,8.52586,8.52586,0,0,0-1.75182.18739,5.31365,5.31365,0,0,0-1.6283.61773,3.53165,3.53165,0,0,0-1.1952,1.1341,3.12348,3.12348,0,0,0-.45252,1.72963,2.41531,2.41531,0,0,0,.43309,1.46171,3.7415,3.7415,0,0,0,1.0897,1.00918,6.8177,6.8177,0,0,0,1.44506.683c.52055.1763,1.00084.32205,1.44088.43171l3.45926.78153a9.90174,9.90174,0,0,1,2.20437.59829,7.07039,7.07039,0,0,1,1.93924,1.13412,5.544,5.544,0,0,1,1.37982,1.731,5.18471,5.18471,0,0,1,.5372,2.43064,5.31509,5.31509,0,0,1-.78568,2.94564,6.38333,6.38333,0,0,1-1.99478,1.97811,8.49019,8.49019,0,0,1-2.74434,1.09246A14.28251,14.28251,0,0,1,78.46978,30a9.74132,9.74132,0,0,1-6.07591-1.77544q-2.33206-1.76988-2.66106-5.68723H72.33a5.10969,5.10969,0,0,0,1.91565,3.97843,6.928,6.928,0,0,0,4.34627,1.34094,9.8929,9.8929,0,0,0,1.95868-.20544,6.34874,6.34874,0,0,0,1.874-.70379,4.42071,4.42071,0,0,0,1.42147-1.25627A3.07021,3.07021,0,0,0,84.4027,23.82a2.97006,2.97006,0,0,0-.39145-1.588,3.39318,3.39318,0,0,0-1.05083-1.07165,6.55928,6.55928,0,0,0-1.50335-.72044c-.56359-.19157-1.13551-.35815-1.71021-.49419l-3.33708-.74543a18.21823,18.21823,0,0,1-2.34736-.75931A7.45428,7.45428,0,0,1,72.187,17.36928a4.48891,4.48891,0,0,1-1.259-1.56444,5.20945,5.20945,0,0,1-.45115-2.28765,5.106,5.106,0,0,1,.71907-2.76241A5.66632,5.66632,0,0,1,73.0713,8.89883a8.75712,8.75712,0,0,1,2.57639-1.02721,12.4056,12.4056,0,0,1,2.82209-.33039,10.51278,10.51278,0,0,1,2.98729.41227,6.94013,6.94013,0,0,1,2.4334,1.27572,6.37773,6.37773,0,0,1,1.66717,2.14468,7.70344,7.70344,0,0,1,.701,3.00532H83.66282a4.91,4.91,0,0,0-.49694-2.07944" fill="#00473c"/><path d="M105.49887,17.802a1.47477,1.47477,0,0,1-.9481.65659,8.66592,8.66592,0,0,1-1.234.28873c-1.09942.19157-2.23214.36647-3.401.5164a18.75143,18.75143,0,0,0-3.19271.68157,6.25816,6.25816,0,0,0-2.371,1.29791,3.09389,3.09389,0,0,0-.92588,2.40982,3.74982,3.74982,0,0,0,.39283,1.74906,4.18624,4.18624,0,0,0,1.04943,1.31873,4.49789,4.49789,0,0,0,1.52557.84538,5.542,5.542,0,0,0,1.77267.29013,8.89011,8.89011,0,0,0,2.84014-.45253,7.06034,7.06034,0,0,0,2.37234-1.32013,6.2816,6.2816,0,0,0,2.203-4.90292V17.802ZM92.51975,11.454a6.10442,6.10442,0,0,1,1.79347-2.22519A7.63432,7.63432,0,0,1,96.97013,7.9531a13.058,13.058,0,0,1,3.37735-.41227,14.94823,14.94823,0,0,1,2.80265.2679,6.79868,6.79868,0,0,1,2.51531,1.01056,5.49144,5.49144,0,0,1,1.81014,2.08084,7.47345,7.47345,0,0,1,.70242,3.48006V25.67135a1.36645,1.36645,0,0,0,1.52417,1.56582,1.9605,1.9605,0,0,0,.82317-.16518v2.18355c-.29984.05552-.56914.09717-.80372.12493a7.32807,7.32807,0,0,1-.88564.043,3.93526,3.93526,0,0,1-1.58526-.26929,2.12873,2.12873,0,0,1-.9259-.76071,2.86319,2.86319,0,0,1-.43449-1.17853,9.97893,9.97893,0,0,1-.10133-1.50336h-.08189a17.98055,17.98055,0,0,1-1.42009,1.83512,7.1415,7.1415,0,0,1-1.61025,1.33956,7.5677,7.5677,0,0,1-2.01835.82455,11.08486,11.08486,0,0,1-2.69715.28874,10.65173,10.65173,0,0,1-2.78324-.3512,6.25233,6.25233,0,0,1-2.26683-1.1133A5.30457,5.30457,0,0,1,91.387,26.59863a6.44614,6.44614,0,0,1-.55665-2.77906,5.47937,5.47937,0,0,1,.99114-3.48424,6.2036,6.2036,0,0,1,2.61527-1.91564,15.18117,15.18117,0,0,1,3.66607-.92866c1.36178-.17631,2.73742-.35121,4.14223-.51362.5497-.05692,1.02722-.12354,1.44089-.20684a2.49073,2.49073,0,0,0,1.03278-.43448,2.01917,2.01917,0,0,0,.63993-.84122,3.73916,3.73916,0,0,0,.22349-1.40341,4.71629,4.71629,0,0,0-.4317-2.16134,3.45641,3.45641,0,0,0-1.1952-1.33816,4.76906,4.76906,0,0,0-1.77265-.68159,11.97842,11.97842,0,0,0-2.16272-.186,6.5543,6.5543,0,0,0-4.03951,1.17576,4.607,4.607,0,0,0-1.64912,3.77018h-2.593a8.63428,8.63428,0,0,1,.78153-3.21633" fill="#00473c"/><path d="M117.16082,8.16172v3.66472h.08188a6.235,6.235,0,0,1,2.63609-3.11223,7.75754,7.75754,0,0,1,4.16443-1.173,10.45584,10.45584,0,0,1,3.72856.57884,5.89829,5.89829,0,0,1,2.4098,1.62415,6.10943,6.10943,0,0,1,1.27709,2.57638,14.4403,14.4403,0,0,1,.37064,3.42178V29.42391h-2.59583v-13.272a12.47,12.47,0,0,0-.2457-2.53336,5.43361,5.43361,0,0,0-.86481-2.03919,4.20786,4.20786,0,0,0-1.67132-1.36037,6.12283,6.12283,0,0,0-2.61387-.49558,6.63047,6.63047,0,0,0-2.78184.55664,6.05877,6.05877,0,0,0-2.06139,1.52557,7.09391,7.09391,0,0,0-1.32013,2.30571,9.38245,9.38245,0,0,0-.5136,2.90678V29.42391h-2.59445V8.16172Z" fill="#00473c"/><path d="M140.6089,29.42307h-2.59582V8.16089h2.59582Zm0-25.26142h-2.59582V0h2.59582Z" fill="#00473c"/><path d="M155.27451,8.16172v2.18217h-4.32684V24.682a4.66767,4.66767,0,0,0,.35118,2.00171c.23183.47891.81625.74821,1.75185.801a20.5064,20.5064,0,0,0,2.22381-.12355v2.18633c-.38175,0-.76765.00971-1.15216.03887-.38452.02776-.76765.04164-1.15356.04164a5.1487,5.1487,0,0,1-3.6272-1.00918q-1.02656-1.014-.98837-3.73133V10.34389h-3.71051V8.16172h3.71051v-6.391h2.59445v6.391Z" fill="#00473c"/><path d="M173.77817,17.802a1.49,1.49,0,0,1-.94672.65659,8.84032,8.84032,0,0,1-1.23823.28873c-1.09941.19157-2.23213.36647-3.39817.5164a18.72849,18.72849,0,0,0-3.19551.68157,6.2247,6.2247,0,0,0-2.36818,1.29791,3.08583,3.08583,0,0,0-.92866,2.40982,3.76681,3.76681,0,0,0,.39286,1.74906,4.24978,4.24978,0,0,0,1.0508,1.31873,4.49116,4.49116,0,0,0,1.5242.84538,5.548,5.548,0,0,0,1.77264.29013,8.93444,8.93444,0,0,0,2.84433-.45253,7.09433,7.09433,0,0,0,2.36816-1.32013,6.26482,6.26482,0,0,0,2.20437-4.90292V17.802Zm-12.97775-6.348a6.05545,6.05545,0,0,1,1.7907-2.22519A7.64611,7.64611,0,0,1,165.248,7.9531a13.02623,13.02623,0,0,1,3.38013-.41227,14.98932,14.98932,0,0,1,2.80128.2679A6.82408,6.82408,0,0,1,173.942,8.81929a5.48286,5.48286,0,0,1,1.81151,2.08084,7.491,7.491,0,0,1,.70242,3.48006V25.67135a1.367,1.367,0,0,0,1.52417,1.56582,1.97129,1.97129,0,0,0,.82455-.16518v2.18355c-.30537.05552-.56912.09717-.80373.12493a7.39121,7.39121,0,0,1-.88564.043,3.94985,3.94985,0,0,1-1.588-.26929,2.15282,2.15282,0,0,1-.9259-.76071,2.90188,2.90188,0,0,1-.4331-1.17853,9.97893,9.97893,0,0,1-.10133-1.50336H173.985a17.05445,17.05445,0,0,1-1.42421,1.83512,7.06891,7.06891,0,0,1-1.60748,1.33956,7.61581,7.61581,0,0,1-2.01975.82455,11.049,11.049,0,0,1-2.69577.28874,10.65937,10.65937,0,0,1-2.78324-.3512,6.27462,6.27462,0,0,1-2.26683-1.1133,5.3518,5.3518,0,0,1-1.52557-1.93645,6.46692,6.46692,0,0,1-.55387-2.77906,5.49591,5.49591,0,0,1,.98837-3.48424,6.24314,6.24314,0,0,1,2.61941-1.91564,15.11519,15.11519,0,0,1,3.6661-.92866c1.359-.17631,2.73742-.35121,4.13943-.51362.5497-.05692,1.03139-.12354,1.44091-.20684a2.4768,2.4768,0,0,0,1.03139-.43448,1.99418,1.99418,0,0,0,.63853-.84122,3.677,3.677,0,0,0,.22766-1.40341,4.73365,4.73365,0,0,0-.4331-2.16134,3.44226,3.44226,0,0,0-1.1938-1.33816,4.79464,4.79464,0,0,0-1.774-.68159,11.9628,11.9628,0,0,0-2.16135-.186,6.55856,6.55856,0,0,0-4.04088,1.17576,4.60552,4.60552,0,0,0-1.64634,3.77018h-2.59582a8.60746,8.60746,0,0,1,.7857-3.21633" fill="#00473c"/><path d="M191.33015,8.16172v2.18217H187.0033V24.682a4.66972,4.66972,0,0,0,.34981,2.00171c.236.47891.81622.74821,1.75322.801a20.60494,20.60494,0,0,0,2.22382-.12355v2.18633c-.38453,0-.769.00971-1.15356.03887-.38313.02776-.769.04164-1.15354.04164a5.14943,5.14943,0,0,1-3.62583-1.00918q-1.03073-1.014-.987-3.73133V10.34389h-3.71051V8.16172h3.71051v-6.391h2.59305v6.391Z" fill="#00473c"/><path d="M198.954,29.42307h-2.59582V8.16089H198.954Zm0-25.26142h-2.59582V0H198.954Z" fill="#00473c"/><path d="M210.90225,10.50756a7.13051,7.13051,0,0,0-2.32792,2.05861,9.35462,9.35462,0,0,0-1.39924,2.90816,11.78225,11.78225,0,0,0,0,6.63116,9.33246,9.33246,0,0,0,1.39924,2.90677,7.119,7.119,0,0,0,2.32792,2.06,7.14165,7.14165,0,0,0,6.50762,0,7.14759,7.14759,0,0,0,2.33207-2.06,9.36533,9.36533,0,0,0,1.40064-2.90677,11.84818,11.84818,0,0,0,0-6.63116,9.38763,9.38763,0,0,0-1.40064-2.90816,7.1592,7.1592,0,0,0-2.33207-2.05861,7.14157,7.14157,0,0,0-6.50762,0m7.564-2.06a9.387,9.387,0,0,1,3.1497,2.43205,10.43533,10.43533,0,0,1,1.93784,3.56334,14.63438,14.63438,0,0,1,0,8.69533,10.44184,10.44184,0,0,1-1.93784,3.562,9.12887,9.12887,0,0,1-3.1497,2.41259,10.89863,10.89863,0,0,1-8.61343,0,9.14388,9.14388,0,0,1-3.15386-2.41259,10.50385,10.50385,0,0,1-1.9337-3.562,14.634,14.634,0,0,1,0-8.69533,10.49725,10.49725,0,0,1,1.9337-3.56334,9.40244,9.40244,0,0,1,3.15386-2.43205,10.68412,10.68412,0,0,1,8.61343,0" fill="#00473c"/><path d="M231.87362,8.16172v3.66472h.08329a6.22968,6.22968,0,0,1,2.64022-3.11223,7.7421,7.7421,0,0,1,4.15888-1.173,10.45637,10.45637,0,0,1,3.73135.57884,5.92645,5.92645,0,0,1,2.40981,1.62415,6.12545,6.12545,0,0,1,1.27707,2.57638,14.51238,14.51238,0,0,1,.37067,3.42178V29.42391h-2.59586v-13.272a12.0822,12.0822,0,0,0-.24846-2.53336,5.32114,5.32114,0,0,0-.862-2.03919A4.26742,4.26742,0,0,0,241.17,10.219a6.17374,6.17374,0,0,0-2.62082-.49558,6.64654,6.64654,0,0,0-2.78044.55664,6.10219,6.10219,0,0,0-2.05862,1.52557,6.96547,6.96547,0,0,0-1.31735,2.30571,9.34268,9.34268,0,0,0-.51916,2.90678V29.42391h-2.59306V8.16172Z" fill="#00473c"/></g></svg>