<svg id="Layer_1" data-name="Layer 1" xmlns="http://www.w3.org/2000/svg" width="35" height="35" viewBox="0 0 35 35"><defs><style>.cls-1{fill:#4dc8f1;}.cls-2{fill:#fff;}</style></defs><title>share-twitter</title><rect class="cls-1" width="35" height="35"/><path class="cls-2" d="M9.69208,23.79782A10.05352,10.05352,0,0,0,25.15865,14.8704a7.16511,7.16511,0,0,0,1.76386-1.83,7.06255,7.06255,0,0,1-2.03015.5565,3.54054,3.54054,0,0,0,1.55386-1.95563,7.08478,7.08478,0,0,1-2.24431.85831,3.53737,3.53737,0,0,0-6.024,3.22422,10.03224,10.03224,0,0,1-7.286-3.69388,3.53926,3.53926,0,0,0,1.094,4.72,3.52224,3.52224,0,0,1-1.60176-.44238,3.539,3.539,0,0,0,2.83545,3.51108,3.538,3.538,0,0,1-1.59593.06037,3.5371,3.5371,0,0,0,3.30188,2.4551A7.10446,7.10446,0,0,1,9.69208,23.79782Z"/></svg>